<svg xmlns="http://www.w3.org/2000/svg" xmlns:xlink="http://www.w3.org/1999/xlink" width="500" zoomAndPan="magnify" viewBox="0 0 375 374.999991" height="500" preserveAspectRatio="xMidYMid meet" version="1.0"><defs><g/><clipPath id="8a47d67bfa"><path d="M 20.722656 250.890625 L 197.21875 250.890625 L 197.21875 332.703125 L 20.722656 332.703125 Z M 20.722656 250.890625 " clip-rule="nonzero"/></clipPath><clipPath id="cd426a9460"><path d="M 104.566406 169.8125 L 191.894531 169.8125 L 191.894531 257.140625 L 104.566406 257.140625 Z M 104.566406 169.8125 " clip-rule="nonzero"/></clipPath></defs><g fill="#f3658c" fill-opacity="1"><g transform="translate(68.696962, 298.248655)"><g><path d="M 60.03125 -41.65625 C 60.03125 -35.894531 61.09375 -30.453125 63.21875 -25.328125 C 65.34375 -20.203125 68.28125 -15.757812 72.03125 -12 C 75.789062 -8.25 80.171875 -5.3125 85.171875 -3.1875 C 90.171875 -1.0625 95.550781 0 101.3125 0 L 9.375 0 C 14.882812 -0.75 20.203125 -2.5 25.328125 -5.25 C 30.453125 -8 35.265625 -11.4375 39.765625 -15.5625 C 44.273438 -19.695312 48.28125 -24.265625 51.78125 -29.265625 C 55.28125 -34.265625 58.03125 -39.394531 60.03125 -44.65625 Z M 132.078125 0 C 137.328125 0 141.828125 -2.1875 145.578125 -6.5625 C 149.335938 -10.9375 151.21875 -15.878906 151.21875 -21.390625 C 151.21875 -22.390625 151.21875 -23.390625 151.21875 -24.390625 C 151.21875 -25.390625 150.96875 -26.390625 150.46875 -27.390625 L 139.578125 -58.90625 L 138.828125 -61.15625 L 112.1875 -138.078125 C 110.4375 -142.328125 107.3125 -144.453125 102.8125 -144.453125 C 98.5625 -144.453125 95.5625 -142.328125 93.8125 -138.078125 L 138.828125 -262.65625 L 180.484375 -142.953125 C 182.234375 -137.953125 184.234375 -132.007812 186.484375 -125.125 C 188.734375 -118.25 190.734375 -112.3125 192.484375 -107.3125 L 223.25 -19.515625 C 225 -14.503906 228.0625 -10 232.4375 -6 C 236.820312 -2 241.890625 0 247.640625 0 Z M 132.078125 0 "/></g></g></g><g clip-path="url(#8a47d67bfa)"><path fill="#01274a" d="M 20.722656 250.890625 L 197.132812 250.890625 L 197.132812 332.703125 L 20.722656 332.703125 Z M 20.722656 250.890625 " fill-opacity="1" fill-rule="nonzero"/></g><g clip-path="url(#cd426a9460)"><path fill="#f3658c" d="M 148.207031 169.8125 C 143.953125 205.75 140.503906 209.199219 104.566406 213.453125 C 104.640625 213.460938 104.714844 213.46875 104.789062 213.480469 L 104.792969 213.480469 C 140.519531 217.71875 143.960938 221.230469 148.207031 257.089844 C 152.457031 221.152344 155.90625 217.707031 191.84375 213.453125 C 155.90625 209.199219 152.457031 205.75 148.207031 169.8125 Z M 148.207031 169.8125 " fill-opacity="1" fill-rule="nonzero"/></g><g fill="#f3658c" fill-opacity="1"><g transform="translate(101.046085, 279.310649)"><g><path d="M 3.046875 13.828125 C 2.910156 13.828125 2.753906 13.765625 2.578125 13.640625 C 2.296875 13.429688 2.164062 13.210938 2.1875 12.984375 C 2.21875 12.753906 2.3125 12.484375 2.46875 12.171875 C 2.539062 11.992188 2.59375 11.867188 2.625 11.796875 C 3.082031 10.503906 3.617188 9.285156 4.234375 8.140625 C 4.847656 7.003906 5.425781 6 5.96875 5.125 C 6.875 3.632812 7.054688 1.796875 6.515625 -0.390625 C 6.046875 -2.160156 4.992188 -3.554688 3.359375 -4.578125 C 3.273438 -4.609375 3.15625 -4.675781 3 -4.78125 C 2.71875 -4.9375 2.492188 -5.078125 2.328125 -5.203125 C 2.160156 -5.328125 2.078125 -5.503906 2.078125 -5.734375 C 2.078125 -6.023438 2.171875 -6.210938 2.359375 -6.296875 C 2.554688 -6.390625 2.796875 -6.472656 3.078125 -6.546875 L 3.3125 -6.59375 C 6.082031 -7.332031 8.71875 -7.703125 11.21875 -7.703125 C 11.363281 -7.703125 11.566406 -7.703125 11.828125 -7.703125 C 12.085938 -7.703125 12.21875 -7.703125 12.21875 -7.703125 C 13.289062 -7.703125 14.148438 -8.164062 14.796875 -9.09375 C 15.335938 -9.882812 15.867188 -10.675781 16.390625 -11.46875 C 16.921875 -12.269531 17.441406 -13.070312 17.953125 -13.875 C 19.578125 -16.332031 21.234375 -18.800781 22.921875 -21.28125 C 24.617188 -23.757812 26.441406 -26.128906 28.390625 -28.390625 C 28.753906 -28.804688 29.128906 -29.195312 29.515625 -29.5625 C 29.898438 -29.9375 30.347656 -30.226562 30.859375 -30.4375 C 31.117188 -30.5625 31.351562 -30.625 31.5625 -30.625 C 32.125 -30.625 32.546875 -30.21875 32.828125 -29.40625 C 33.085938 -28.632812 33.191406 -27.90625 33.140625 -27.21875 C 33.085938 -26.539062 33.007812 -25.867188 32.90625 -25.203125 C 32.34375 -21.835938 31.578125 -18.570312 30.609375 -15.40625 C 29.648438 -12.25 28.671875 -9.144531 27.671875 -6.09375 C 27.410156 -5.394531 27.171875 -4.703125 26.953125 -4.015625 C 26.734375 -3.335938 26.507812 -2.65625 26.28125 -1.96875 C 25.6875 -0.164062 25.070312 1.617188 24.4375 3.390625 C 23.8125 5.160156 23.179688 6.945312 22.546875 8.75 C 22.515625 8.820312 22.472656 8.9375 22.421875 9.09375 C 22.398438 9.25 22.351562 9.398438 22.28125 9.546875 C 22.21875 9.703125 22.125 9.78125 22 9.78125 C 21.894531 9.78125 21.765625 9.742188 21.609375 9.671875 C 21.484375 9.597656 21.394531 9.519531 21.34375 9.4375 C 21.289062 9.332031 21.289062 9.207031 21.34375 9.0625 C 21.394531 8.925781 21.445312 8.804688 21.5 8.703125 C 21.550781 8.523438 21.585938 8.398438 21.609375 8.328125 C 22.253906 5.648438 22.992188 3 23.828125 0.375 C 24.660156 -2.238281 25.503906 -4.804688 26.359375 -7.328125 C 26.941406 -9.015625 27.515625 -10.722656 28.078125 -12.453125 C 28.648438 -14.191406 29.191406 -15.9375 29.703125 -17.6875 C 29.804688 -18.019531 29.96875 -18.570312 30.1875 -19.34375 C 30.40625 -20.113281 30.632812 -20.984375 30.875 -21.953125 C 31.125 -22.929688 31.335938 -23.910156 31.515625 -24.890625 C 31.691406 -25.867188 31.8125 -26.722656 31.875 -27.453125 C 31.945312 -28.179688 31.90625 -28.6875 31.75 -28.96875 C 31.675781 -29.070312 31.585938 -29.148438 31.484375 -29.203125 L 31.4375 -29.203125 L 31.25 -29.25 C 31.125 -29.25 31.007812 -29.210938 30.90625 -29.140625 C 30.800781 -29.078125 30.734375 -29.035156 30.703125 -29.015625 C 30.398438 -28.785156 30.125 -28.523438 29.875 -28.234375 C 29.632812 -27.953125 29.398438 -27.671875 29.171875 -27.390625 C 29.035156 -27.242188 28.90625 -27.09375 28.78125 -26.9375 C 28.65625 -26.78125 28.523438 -26.625 28.390625 -26.46875 C 27.492188 -25.46875 26.582031 -24.390625 25.65625 -23.234375 C 24.757812 -22.054688 23.898438 -20.867188 23.078125 -19.671875 C 22.253906 -18.472656 21.484375 -17.335938 20.765625 -16.265625 L 19.875 -14.875 C 19.132812 -13.738281 18.382812 -12.597656 17.625 -11.453125 C 16.863281 -10.316406 16.085938 -9.195312 15.296875 -8.09375 L 15.140625 -7.859375 L 15.484375 -7.859375 C 16.898438 -7.785156 18.21875 -7.6875 19.4375 -7.5625 C 20.65625 -7.445312 21.867188 -7.25 23.078125 -6.96875 C 23.128906 -6.945312 23.191406 -6.9375 23.265625 -6.9375 C 23.347656 -6.9375 23.414062 -6.9375 23.46875 -6.9375 C 23.59375 -6.90625 23.707031 -6.882812 23.8125 -6.875 C 23.914062 -6.863281 24.003906 -6.820312 24.078125 -6.75 C 24.160156 -6.695312 24.210938 -6.578125 24.234375 -6.390625 C 24.265625 -6.140625 24.132812 -6.015625 23.84375 -6.015625 C 23.769531 -6.015625 23.6875 -6.019531 23.59375 -6.03125 C 23.507812 -6.039062 23.414062 -6.0625 23.3125 -6.09375 L 23.15625 -6.125 C 22.945312 -6.175781 22.726562 -6.21875 22.5 -6.25 C 22.269531 -6.289062 22.039062 -6.351562 21.8125 -6.4375 C 21.5 -6.488281 21.179688 -6.550781 20.859375 -6.625 C 20.546875 -6.707031 20.234375 -6.757812 19.921875 -6.78125 C 19.148438 -6.90625 18.457031 -6.96875 17.84375 -6.96875 C 15.375 -6.96875 13.625 -5.941406 12.59375 -3.890625 C 12.15625 -3.015625 11.707031 -2.160156 11.25 -1.328125 C 10.789062 -0.492188 10.316406 0.332031 9.828125 1.15625 C 8.972656 2.625 8.132812 4.125 7.3125 5.65625 C 6.5 7.195312 5.796875 8.816406 5.203125 10.515625 C 5.046875 10.929688 4.859375 11.320312 4.640625 11.6875 C 4.421875 12.0625 4.195312 12.414062 3.96875 12.75 C 3.914062 12.832031 3.851562 12.945312 3.78125 13.09375 C 3.695312 13.28125 3.597656 13.445312 3.484375 13.59375 C 3.367188 13.75 3.222656 13.828125 3.046875 13.828125 Z M 12.875 -6.8125 C 12.28125 -6.863281 11.703125 -6.890625 11.140625 -6.890625 C 9.878906 -6.890625 8.679688 -6.789062 7.546875 -6.59375 C 6.421875 -6.40625 5.316406 -6.195312 4.234375 -5.96875 C 4.003906 -5.914062 3.847656 -5.851562 3.765625 -5.78125 C 3.691406 -5.707031 3.65625 -5.628906 3.65625 -5.546875 C 3.65625 -5.472656 3.6875 -5.367188 3.75 -5.234375 C 3.820312 -5.109375 3.972656 -4.957031 4.203125 -4.78125 C 6.179688 -3.238281 7.320312 -1.117188 7.625 1.578125 L 7.671875 2.078125 L 13.171875 -6.78125 Z M 12.875 -6.8125 "/></g></g></g><g fill="#f3658c" fill-opacity="1"><g transform="translate(131.680762, 279.310649)"><g><path d="M 16.84375 -5.96875 C 16.988281 -5.945312 17.078125 -5.910156 17.109375 -5.859375 C 17.128906 -5.773438 17.078125 -5.6875 16.953125 -5.59375 C 16.492188 -5.332031 15.976562 -5.203125 15.40625 -5.203125 C 14.664062 -5.203125 13.910156 -5.394531 13.140625 -5.78125 C 12.367188 -6.164062 11.710938 -6.664062 11.171875 -7.28125 C 10.679688 -7.820312 10.304688 -8.21875 10.046875 -8.46875 C 9.796875 -8.726562 9.53125 -8.859375 9.25 -8.859375 C 9.070312 -8.859375 8.863281 -8.785156 8.625 -8.640625 C 8.394531 -8.503906 8.113281 -8.320312 7.78125 -8.09375 C 6.550781 -7.21875 5.394531 -6.257812 4.3125 -5.21875 C 3.238281 -4.175781 2.195312 -3.128906 1.1875 -2.078125 L 0.234375 -1.125 C 0.203125 -1.070312 0.132812 -0.976562 0.03125 -0.84375 C -0.0390625 -0.738281 -0.117188 -0.640625 -0.203125 -0.546875 C -0.296875 -0.460938 -0.410156 -0.421875 -0.546875 -0.421875 C -0.691406 -0.421875 -0.882812 -0.5 -1.125 -0.65625 C -1.40625 -0.863281 -1.53125 -1.078125 -1.5 -1.296875 C -1.476562 -1.515625 -1.441406 -1.722656 -1.390625 -1.921875 L -1.3125 -2.078125 C -0.28125 -5.335938 0.976562 -8.21875 2.46875 -10.71875 L 2.546875 -10.78125 C 2.617188 -10.9375 2.71875 -11.09375 2.84375 -11.25 C 2.976562 -11.40625 3.125 -11.484375 3.28125 -11.484375 C 3.375 -11.484375 3.488281 -11.441406 3.625 -11.359375 C 3.800781 -11.234375 3.914062 -11.109375 3.96875 -10.984375 C 4.019531 -10.847656 4.019531 -10.707031 3.96875 -10.5625 C 3.914062 -10.425781 3.851562 -10.296875 3.78125 -10.171875 C 3.726562 -10.015625 3.6875 -9.910156 3.65625 -9.859375 L 3.359375 -9.125 C 3.203125 -8.738281 3.039062 -8.347656 2.875 -7.953125 C 2.707031 -7.554688 2.53125 -7.164062 2.34375 -6.78125 C 2.25 -6.519531 2.132812 -6.257812 2 -6 C 1.875 -5.75 1.757812 -5.492188 1.65625 -5.234375 C 1.632812 -5.234375 1.582031 -5.128906 1.5 -4.921875 C 1.425781 -4.722656 1.351562 -4.507812 1.28125 -4.28125 C 1.21875 -4.050781 1.210938 -3.894531 1.265625 -3.8125 L 1.34375 -3.734375 L 1.421875 -3.734375 C 1.679688 -3.785156 1.898438 -3.890625 2.078125 -4.046875 C 2.253906 -4.203125 2.421875 -4.367188 2.578125 -4.546875 C 2.628906 -4.597656 2.6875 -4.65625 2.75 -4.71875 C 2.8125 -4.78125 2.882812 -4.851562 2.96875 -4.9375 L 4.578125 -6.28125 C 5.097656 -6.71875 5.613281 -7.144531 6.125 -7.5625 C 6.632812 -7.988281 7.148438 -8.410156 7.671875 -8.828125 C 8.359375 -9.335938 8.882812 -9.59375 9.25 -9.59375 C 9.582031 -9.59375 9.910156 -9.441406 10.234375 -9.140625 C 10.554688 -8.847656 10.957031 -8.410156 11.4375 -7.828125 C 11.976562 -7.148438 12.601562 -6.625 13.3125 -6.25 C 14.019531 -5.882812 14.734375 -5.703125 15.453125 -5.703125 C 15.679688 -5.703125 15.910156 -5.726562 16.140625 -5.78125 C 16.222656 -5.78125 16.328125 -5.804688 16.453125 -5.859375 C 16.628906 -5.929688 16.757812 -5.96875 16.84375 -5.96875 Z M 16.84375 -5.96875 "/></g></g></g><g fill="#f3658c" fill-opacity="1"><g transform="translate(147.980715, 279.310649)"><g><path d="M 13.40625 -6.125 C 13.488281 -6.070312 13.53125 -5.957031 13.53125 -5.78125 C 13.53125 -5.601562 13.421875 -5.4375 13.203125 -5.28125 C 12.984375 -5.125 12.804688 -4.992188 12.671875 -4.890625 C 12.234375 -4.503906 11.785156 -4.128906 11.328125 -3.765625 C 10.867188 -3.410156 10.40625 -3.066406 9.9375 -2.734375 C 8.96875 -2.046875 7.9375 -1.429688 6.84375 -0.890625 C 5.75 -0.347656 4.585938 0.078125 3.359375 0.390625 C 2.835938 0.535156 2.296875 0.609375 1.734375 0.609375 C 1.171875 0.609375 0.601562 0.351562 0.03125 -0.15625 C -0.53125 -0.644531 -0.84375 -1.164062 -0.90625 -1.71875 C -0.96875 -2.269531 -0.921875 -2.800781 -0.765625 -3.3125 C -0.304688 -5.0625 0.34375 -6.691406 1.1875 -8.203125 C 2.039062 -9.722656 3.054688 -11.125 4.234375 -12.40625 C 4.367188 -12.582031 4.53125 -12.75 4.71875 -12.90625 C 4.914062 -13.0625 5.179688 -13.007812 5.515625 -12.75 C 5.867188 -12.46875 5.984375 -12.21875 5.859375 -12 C 5.734375 -11.78125 5.617188 -11.582031 5.515625 -11.40625 C 4.691406 -10.09375 3.894531 -8.78125 3.125 -7.46875 C 2.351562 -6.164062 1.671875 -4.796875 1.078125 -3.359375 C 0.972656 -3.097656 0.84375 -2.828125 0.6875 -2.546875 C 0.539062 -2.265625 0.46875 -1.972656 0.46875 -1.671875 C 0.46875 -1.378906 0.609375 -1.09375 0.890625 -0.8125 C 1.347656 -0.320312 1.859375 -0.113281 2.421875 -0.1875 C 2.992188 -0.269531 3.519531 -0.363281 4 -0.46875 C 4.976562 -0.695312 5.890625 -1.039062 6.734375 -1.5 C 7.585938 -1.96875 8.398438 -2.484375 9.171875 -3.046875 C 9.273438 -3.117188 9.53125 -3.332031 9.9375 -3.6875 C 10.351562 -4.050781 10.800781 -4.4375 11.28125 -4.84375 C 11.769531 -5.257812 12.21875 -5.59375 12.625 -5.84375 C 13.039062 -6.101562 13.300781 -6.195312 13.40625 -6.125 Z M 7.203125 -14.5625 C 6.609375 -14.507812 6.238281 -14.78125 6.09375 -15.375 C 5.957031 -15.882812 6.003906 -16.25 6.234375 -16.46875 C 6.472656 -16.6875 6.8125 -16.8125 7.25 -16.84375 C 7.550781 -16.863281 7.816406 -16.796875 8.046875 -16.640625 C 8.285156 -16.492188 8.453125 -16.210938 8.546875 -15.796875 C 8.578125 -15.390625 8.460938 -15.09375 8.203125 -14.90625 C 7.953125 -14.726562 7.617188 -14.613281 7.203125 -14.5625 Z M 7.203125 -14.5625 "/></g></g></g><g fill="#f3658c" fill-opacity="1"><g transform="translate(160.696986, 279.310649)"><g><path d="M 0.609375 -2.390625 C 0.328125 -1.359375 0.132812 -0.265625 0.03125 0.890625 C 0.03125 1.015625 0.0390625 1.191406 0.0625 1.421875 C 0.09375 1.648438 0.203125 1.832031 0.390625 1.96875 C 0.492188 2.070312 0.617188 2.125 0.765625 2.125 C 0.867188 2.125 0.972656 2.097656 1.078125 2.046875 C 1.566406 1.910156 2.007812 1.679688 2.40625 1.359375 C 2.800781 1.046875 3.164062 0.734375 3.5 0.421875 C 4.351562 -0.367188 4.972656 -1.359375 5.359375 -2.546875 C 5.410156 -2.703125 5.445312 -2.863281 5.46875 -3.03125 C 5.5 -3.195312 5.421875 -3.367188 5.234375 -3.546875 C 5.054688 -3.773438 4.851562 -3.890625 4.625 -3.890625 C 4.550781 -3.890625 4.472656 -3.875 4.390625 -3.84375 C 4.316406 -3.820312 4.238281 -3.800781 4.15625 -3.78125 C 4.050781 -3.726562 3.953125 -3.691406 3.859375 -3.671875 C 3.773438 -3.660156 3.679688 -3.65625 3.578125 -3.65625 C 3.453125 -3.632812 3.351562 -3.625 3.28125 -3.625 C 2.863281 -3.625 2.59375 -3.773438 2.46875 -4.078125 C 2.382812 -4.265625 2.382812 -4.410156 2.46875 -4.515625 C 2.539062 -4.660156 2.757812 -4.75 3.125 -4.78125 C 4.476562 -4.9375 5.78125 -5.128906 7.03125 -5.359375 C 8.28125 -5.585938 9.390625 -5.804688 10.359375 -6.015625 C 10.722656 -6.117188 11.085938 -6.207031 11.453125 -6.28125 C 11.828125 -6.351562 12.195312 -6.441406 12.5625 -6.546875 L 12.671875 -6.59375 C 12.859375 -6.644531 12.988281 -6.671875 13.0625 -6.671875 C 13.1875 -6.671875 13.300781 -6.578125 13.40625 -6.390625 C 13.457031 -6.285156 13.472656 -6.210938 13.453125 -6.171875 C 13.421875 -6.085938 13.359375 -6.03125 13.265625 -6 C 13.179688 -5.976562 13.085938 -5.957031 12.984375 -5.9375 L 10.984375 -5.515625 C 10.367188 -5.359375 9.738281 -5.207031 9.09375 -5.0625 C 8.445312 -4.925781 7.804688 -4.78125 7.171875 -4.625 C 6.734375 -4.550781 6.40625 -4.40625 6.1875 -4.1875 C 5.96875 -3.96875 5.859375 -3.5625 5.859375 -2.96875 C 5.859375 -1.78125 5.515625 -0.800781 4.828125 -0.03125 C 4.148438 0.738281 3.414062 1.457031 2.625 2.125 L 2.34375 2.34375 C 2.09375 2.550781 1.832031 2.757812 1.5625 2.96875 C 1.289062 3.175781 0.972656 3.28125 0.609375 3.28125 C 0.253906 3.28125 -0.113281 3.132812 -0.5 2.84375 C -1.09375 2.4375 -1.390625 1.96875 -1.390625 1.4375 C -1.390625 0.914062 -1.347656 0.410156 -1.265625 -0.078125 L -1.1875 -0.46875 C -0.0820312 -6.65625 2.132812 -12.210938 5.46875 -17.140625 L 6.3125 -18.421875 C 7.03125 -19.492188 7.773438 -20.566406 8.546875 -21.640625 C 9.316406 -22.722656 10.15625 -23.753906 11.0625 -24.734375 C 11.3125 -25.015625 11.601562 -25.289062 11.9375 -25.5625 C 12.28125 -25.832031 12.664062 -26.03125 13.09375 -26.15625 C 13.382812 -26.238281 13.65625 -26.28125 13.90625 -26.28125 C 14.519531 -26.28125 15.035156 -26.070312 15.453125 -25.65625 C 15.960938 -25.175781 16.21875 -24.523438 16.21875 -23.703125 C 16.21875 -22.179688 15.9375 -20.835938 15.375 -19.671875 C 14.8125 -18.503906 14.179688 -17.457031 13.484375 -16.53125 C 10.710938 -12.800781 7.21875 -9.707031 3 -7.25 C 2.945312 -7.195312 2.875 -7.15625 2.78125 -7.125 C 2.644531 -7.050781 2.515625 -6.96875 2.390625 -6.875 C 2.265625 -6.789062 2.160156 -6.671875 2.078125 -6.515625 C 2.003906 -6.234375 1.914062 -5.960938 1.8125 -5.703125 C 1.707031 -5.441406 1.601562 -5.171875 1.5 -4.890625 C 1.34375 -4.484375 1.1875 -4.066406 1.03125 -3.640625 C 0.882812 -3.210938 0.742188 -2.796875 0.609375 -2.390625 Z M 3.234375 -9.5625 C 3.160156 -9.375 3.082031 -9.179688 3 -8.984375 C 2.925781 -8.796875 2.835938 -8.613281 2.734375 -8.4375 L 2.921875 -8.25 C 6.335938 -10.070312 9.304688 -12.507812 11.828125 -15.5625 C 13.628906 -17.75 14.757812 -19.945312 15.21875 -22.15625 L 15.21875 -22.3125 C 15.320312 -22.75 15.378906 -23.21875 15.390625 -23.71875 C 15.398438 -24.21875 15.148438 -24.632812 14.640625 -24.96875 C 14.429688 -25.09375 14.226562 -25.15625 14.03125 -25.15625 C 13.71875 -25.15625 13.445312 -25.039062 13.21875 -24.8125 C 12.988281 -24.582031 12.78125 -24.351562 12.59375 -24.125 L 12.453125 -23.96875 C 9.703125 -20.570312 7.03125 -16.578125 4.4375 -11.984375 C 4.195312 -11.597656 3.976562 -11.195312 3.78125 -10.78125 C 3.59375 -10.375 3.410156 -9.96875 3.234375 -9.5625 Z M 3.234375 -9.5625 "/></g></g></g><g fill="#f3658c" fill-opacity="1"><g transform="translate(173.066465, 279.310649)"><g><path d="M 19.8125 -7.515625 C 19.9375 -7.484375 20.007812 -7.457031 20.03125 -7.4375 C 20.113281 -7.3125 20.0625 -7.144531 19.875 -6.9375 C 17.226562 -4.164062 14.003906 -1.722656 10.203125 0.390625 L 9.9375 0.5 C 9.8125 0.601562 9.664062 0.691406 9.5 0.765625 C 9.332031 0.847656 9.160156 0.890625 8.984375 0.890625 C 8.722656 0.890625 8.453125 0.773438 8.171875 0.546875 C 7.835938 0.234375 7.675781 -0.0546875 7.6875 -0.328125 C 7.695312 -0.597656 7.753906 -0.882812 7.859375 -1.1875 C 7.890625 -1.238281 7.914062 -1.289062 7.9375 -1.34375 C 7.957031 -1.394531 7.96875 -1.445312 7.96875 -1.5 C 8.207031 -2.320312 8.5 -3.113281 8.84375 -3.875 C 9.1875 -4.632812 9.539062 -5.359375 9.90625 -6.046875 C 9.90625 -6.046875 9.988281 -6.195312 10.15625 -6.5 C 10.320312 -6.8125 10.5 -7.140625 10.6875 -7.484375 C 10.882812 -7.835938 11.019531 -8.078125 11.09375 -8.203125 C 11.09375 -8.234375 11.144531 -8.3125 11.25 -8.4375 C 11.476562 -8.769531 11.675781 -9.113281 11.84375 -9.46875 C 12.007812 -9.832031 12.054688 -10.117188 11.984375 -10.328125 C 11.929688 -10.453125 11.851562 -10.539062 11.75 -10.59375 C 11.675781 -10.625 11.613281 -10.640625 11.5625 -10.640625 C 11.300781 -10.640625 11.015625 -10.492188 10.703125 -10.203125 C 10.398438 -9.921875 10.25 -9.78125 10.25 -9.78125 C 10.070312 -9.582031 9.890625 -9.328125 9.703125 -9.015625 C 9.523438 -8.703125 9.425781 -8.351562 9.40625 -7.96875 L 9.40625 -7.828125 C 9.40625 -7.722656 9.394531 -7.601562 9.375 -7.46875 C 9.363281 -7.34375 9.320312 -7.28125 9.25 -7.28125 C 9.21875 -7.28125 9.15625 -7.296875 9.0625 -7.328125 C 8.976562 -7.367188 8.859375 -7.46875 8.703125 -7.625 L 8.59375 -7.75 L 8.359375 -7.46875 C 8.285156 -7.414062 8.210938 -7.351562 8.140625 -7.28125 C 8.078125 -7.207031 8.019531 -7.144531 7.96875 -7.09375 C 7.664062 -6.757812 7.378906 -6.429688 7.109375 -6.109375 C 6.835938 -5.785156 6.5625 -5.46875 6.28125 -5.15625 C 5.664062 -4.4375 5.035156 -3.722656 4.390625 -3.015625 C 3.742188 -2.316406 3.050781 -1.660156 2.3125 -1.046875 L 2.046875 -0.8125 C 1.816406 -0.601562 1.570312 -0.410156 1.3125 -0.234375 C 1.050781 -0.0546875 0.769531 0.03125 0.46875 0.03125 C 0.207031 0.03125 -0.0625 -0.0546875 -0.34375 -0.234375 C -0.882812 -0.617188 -1.140625 -1.066406 -1.109375 -1.578125 C -1.085938 -2.085938 -1.015625 -2.585938 -0.890625 -3.078125 L -0.84375 -3.3125 C -0.226562 -5.78125 0.875 -7.898438 2.46875 -9.671875 C 3.570312 -10.898438 4.878906 -11.515625 6.390625 -11.515625 L 6.515625 -11.515625 C 6.847656 -11.515625 7.164062 -11.492188 7.46875 -11.453125 C 7.78125 -11.421875 8.015625 -11.300781 8.171875 -11.09375 C 8.628906 -10.425781 9.066406 -10.09375 9.484375 -10.09375 C 9.679688 -10.09375 9.859375 -10.15625 10.015625 -10.28125 C 10.171875 -10.414062 10.335938 -10.5625 10.515625 -10.71875 L 10.640625 -10.828125 C 10.867188 -11.054688 11.125 -11.234375 11.40625 -11.359375 C 11.53125 -11.410156 11.648438 -11.457031 11.765625 -11.5 C 11.878906 -11.539062 11.988281 -11.5625 12.09375 -11.5625 C 12.28125 -11.5625 12.460938 -11.492188 12.640625 -11.359375 C 12.847656 -11.179688 12.941406 -11.003906 12.921875 -10.828125 C 12.910156 -10.648438 12.851562 -10.457031 12.75 -10.25 C 12.3125 -9.300781 11.875 -8.367188 11.4375 -7.453125 C 11 -6.546875 10.566406 -5.640625 10.140625 -4.734375 L 9.4375 -3.28125 C 9.28125 -2.988281 9.144531 -2.6875 9.03125 -2.375 C 8.914062 -2.070312 8.804688 -1.78125 8.703125 -1.5 L 8.515625 -0.921875 C 8.410156 -0.671875 8.398438 -0.476562 8.484375 -0.34375 C 8.523438 -0.269531 8.597656 -0.207031 8.703125 -0.15625 C 8.785156 -0.125 8.878906 -0.109375 8.984375 -0.109375 C 9.234375 -0.109375 9.523438 -0.1875 9.859375 -0.34375 C 10.191406 -0.5 10.425781 -0.613281 10.5625 -0.6875 C 11.382812 -1.257812 12.191406 -1.832031 12.984375 -2.40625 C 13.773438 -2.988281 14.546875 -3.5625 15.296875 -4.125 C 15.554688 -4.300781 15.800781 -4.484375 16.03125 -4.671875 C 16.257812 -4.867188 16.503906 -5.054688 16.765625 -5.234375 C 16.921875 -5.367188 17.082031 -5.503906 17.25 -5.640625 C 17.414062 -5.785156 17.585938 -5.921875 17.765625 -6.046875 C 17.835938 -6.128906 17.910156 -6.203125 17.984375 -6.265625 C 18.066406 -6.328125 18.160156 -6.382812 18.265625 -6.4375 C 18.390625 -6.5625 18.53125 -6.679688 18.6875 -6.796875 C 18.84375 -6.910156 19 -7.035156 19.15625 -7.171875 L 19.296875 -7.25 C 19.378906 -7.300781 19.460938 -7.359375 19.546875 -7.421875 C 19.640625 -7.484375 19.726562 -7.515625 19.8125 -7.515625 Z M 8.546875 -8.984375 C 8.804688 -9.265625 8.796875 -9.597656 8.515625 -9.984375 C 8.179688 -10.421875 7.785156 -10.640625 7.328125 -10.640625 C 7.273438 -10.640625 7.222656 -10.640625 7.171875 -10.640625 C 6.523438 -10.503906 5.957031 -10.296875 5.46875 -10.015625 C 4.34375 -9.347656 3.429688 -8.515625 2.734375 -7.515625 C 2.046875 -6.515625 1.441406 -5.523438 0.921875 -4.546875 C 0.867188 -4.441406 0.8125 -4.335938 0.75 -4.234375 C 0.6875 -4.128906 0.628906 -4.03125 0.578125 -3.9375 C 0.421875 -3.695312 0.28125 -3.445312 0.15625 -3.1875 C 0.03125 -2.9375 -0.0703125 -2.65625 -0.15625 -2.34375 C -0.175781 -2.21875 -0.1875 -1.988281 -0.1875 -1.65625 C -0.1875 -1.320312 -0.0976562 -1.078125 0.078125 -0.921875 C 0.148438 -0.816406 0.253906 -0.765625 0.390625 -0.765625 C 0.492188 -0.765625 0.617188 -0.804688 0.765625 -0.890625 C 1.867188 -1.578125 2.851562 -2.394531 3.71875 -3.34375 C 4.582031 -4.300781 5.410156 -5.265625 6.203125 -6.234375 C 6.585938 -6.703125 6.972656 -7.164062 7.359375 -7.625 C 7.742188 -8.09375 8.140625 -8.546875 8.546875 -8.984375 Z M 8.546875 -8.984375 "/></g></g></g><g fill="#f3658c" fill-opacity="1"><g transform="translate(87.107473, 313.578562)"><g><path d="M 3.046875 13.828125 C 2.910156 13.828125 2.753906 13.765625 2.578125 13.640625 C 2.296875 13.429688 2.164062 13.210938 2.1875 12.984375 C 2.21875 12.753906 2.3125 12.484375 2.46875 12.171875 C 2.539062 11.992188 2.59375 11.867188 2.625 11.796875 C 3.082031 10.503906 3.617188 9.285156 4.234375 8.140625 C 4.847656 7.003906 5.425781 6 5.96875 5.125 C 6.875 3.632812 7.054688 1.796875 6.515625 -0.390625 C 6.046875 -2.160156 4.992188 -3.554688 3.359375 -4.578125 C 3.273438 -4.609375 3.15625 -4.675781 3 -4.78125 C 2.71875 -4.9375 2.492188 -5.078125 2.328125 -5.203125 C 2.160156 -5.328125 2.078125 -5.503906 2.078125 -5.734375 C 2.078125 -6.023438 2.171875 -6.210938 2.359375 -6.296875 C 2.554688 -6.390625 2.796875 -6.472656 3.078125 -6.546875 L 3.3125 -6.59375 C 6.082031 -7.332031 8.71875 -7.703125 11.21875 -7.703125 C 11.363281 -7.703125 11.566406 -7.703125 11.828125 -7.703125 C 12.085938 -7.703125 12.21875 -7.703125 12.21875 -7.703125 C 13.289062 -7.703125 14.148438 -8.164062 14.796875 -9.09375 C 15.335938 -9.882812 15.867188 -10.675781 16.390625 -11.46875 C 16.921875 -12.269531 17.441406 -13.070312 17.953125 -13.875 C 19.578125 -16.332031 21.234375 -18.800781 22.921875 -21.28125 C 24.617188 -23.757812 26.441406 -26.128906 28.390625 -28.390625 C 28.753906 -28.804688 29.128906 -29.195312 29.515625 -29.5625 C 29.898438 -29.9375 30.347656 -30.226562 30.859375 -30.4375 C 31.117188 -30.5625 31.351562 -30.625 31.5625 -30.625 C 32.125 -30.625 32.546875 -30.21875 32.828125 -29.40625 C 33.085938 -28.632812 33.191406 -27.90625 33.140625 -27.21875 C 33.085938 -26.539062 33.007812 -25.867188 32.90625 -25.203125 C 32.34375 -21.835938 31.578125 -18.570312 30.609375 -15.40625 C 29.648438 -12.25 28.671875 -9.144531 27.671875 -6.09375 C 27.410156 -5.394531 27.171875 -4.703125 26.953125 -4.015625 C 26.734375 -3.335938 26.507812 -2.65625 26.28125 -1.96875 C 25.6875 -0.164062 25.070312 1.617188 24.4375 3.390625 C 23.8125 5.160156 23.179688 6.945312 22.546875 8.75 C 22.515625 8.820312 22.472656 8.9375 22.421875 9.09375 C 22.398438 9.25 22.351562 9.398438 22.28125 9.546875 C 22.21875 9.703125 22.125 9.78125 22 9.78125 C 21.894531 9.78125 21.765625 9.742188 21.609375 9.671875 C 21.484375 9.597656 21.394531 9.519531 21.34375 9.4375 C 21.289062 9.332031 21.289062 9.207031 21.34375 9.0625 C 21.394531 8.925781 21.445312 8.804688 21.5 8.703125 C 21.550781 8.523438 21.585938 8.398438 21.609375 8.328125 C 22.253906 5.648438 22.992188 3 23.828125 0.375 C 24.660156 -2.238281 25.503906 -4.804688 26.359375 -7.328125 C 26.941406 -9.015625 27.515625 -10.722656 28.078125 -12.453125 C 28.648438 -14.191406 29.191406 -15.9375 29.703125 -17.6875 C 29.804688 -18.019531 29.96875 -18.570312 30.1875 -19.34375 C 30.40625 -20.113281 30.632812 -20.984375 30.875 -21.953125 C 31.125 -22.929688 31.335938 -23.910156 31.515625 -24.890625 C 31.691406 -25.867188 31.8125 -26.722656 31.875 -27.453125 C 31.945312 -28.179688 31.90625 -28.6875 31.75 -28.96875 C 31.675781 -29.070312 31.585938 -29.148438 31.484375 -29.203125 L 31.4375 -29.203125 L 31.25 -29.25 C 31.125 -29.25 31.007812 -29.210938 30.90625 -29.140625 C 30.800781 -29.078125 30.734375 -29.035156 30.703125 -29.015625 C 30.398438 -28.785156 30.125 -28.523438 29.875 -28.234375 C 29.632812 -27.953125 29.398438 -27.671875 29.171875 -27.390625 C 29.035156 -27.242188 28.90625 -27.09375 28.78125 -26.9375 C 28.65625 -26.78125 28.523438 -26.625 28.390625 -26.46875 C 27.492188 -25.46875 26.582031 -24.390625 25.65625 -23.234375 C 24.757812 -22.054688 23.898438 -20.867188 23.078125 -19.671875 C 22.253906 -18.472656 21.484375 -17.335938 20.765625 -16.265625 L 19.875 -14.875 C 19.132812 -13.738281 18.382812 -12.597656 17.625 -11.453125 C 16.863281 -10.316406 16.085938 -9.195312 15.296875 -8.09375 L 15.140625 -7.859375 L 15.484375 -7.859375 C 16.898438 -7.785156 18.21875 -7.6875 19.4375 -7.5625 C 20.65625 -7.445312 21.867188 -7.25 23.078125 -6.96875 C 23.128906 -6.945312 23.191406 -6.9375 23.265625 -6.9375 C 23.347656 -6.9375 23.414062 -6.9375 23.46875 -6.9375 C 23.59375 -6.90625 23.707031 -6.882812 23.8125 -6.875 C 23.914062 -6.863281 24.003906 -6.820312 24.078125 -6.75 C 24.160156 -6.695312 24.210938 -6.578125 24.234375 -6.390625 C 24.265625 -6.140625 24.132812 -6.015625 23.84375 -6.015625 C 23.769531 -6.015625 23.6875 -6.019531 23.59375 -6.03125 C 23.507812 -6.039062 23.414062 -6.0625 23.3125 -6.09375 L 23.15625 -6.125 C 22.945312 -6.175781 22.726562 -6.21875 22.5 -6.25 C 22.269531 -6.289062 22.039062 -6.351562 21.8125 -6.4375 C 21.5 -6.488281 21.179688 -6.550781 20.859375 -6.625 C 20.546875 -6.707031 20.234375 -6.757812 19.921875 -6.78125 C 19.148438 -6.90625 18.457031 -6.96875 17.84375 -6.96875 C 15.375 -6.96875 13.625 -5.941406 12.59375 -3.890625 C 12.15625 -3.015625 11.707031 -2.160156 11.25 -1.328125 C 10.789062 -0.492188 10.316406 0.332031 9.828125 1.15625 C 8.972656 2.625 8.132812 4.125 7.3125 5.65625 C 6.5 7.195312 5.796875 8.816406 5.203125 10.515625 C 5.046875 10.929688 4.859375 11.320312 4.640625 11.6875 C 4.421875 12.0625 4.195312 12.414062 3.96875 12.75 C 3.914062 12.832031 3.851562 12.945312 3.78125 13.09375 C 3.695312 13.28125 3.597656 13.445312 3.484375 13.59375 C 3.367188 13.75 3.222656 13.828125 3.046875 13.828125 Z M 12.875 -6.8125 C 12.28125 -6.863281 11.703125 -6.890625 11.140625 -6.890625 C 9.878906 -6.890625 8.679688 -6.789062 7.546875 -6.59375 C 6.421875 -6.40625 5.316406 -6.195312 4.234375 -5.96875 C 4.003906 -5.914062 3.847656 -5.851562 3.765625 -5.78125 C 3.691406 -5.707031 3.65625 -5.628906 3.65625 -5.546875 C 3.65625 -5.472656 3.6875 -5.367188 3.75 -5.234375 C 3.820312 -5.109375 3.972656 -4.957031 4.203125 -4.78125 C 6.179688 -3.238281 7.320312 -1.117188 7.625 1.578125 L 7.671875 2.078125 L 13.171875 -6.78125 Z M 12.875 -6.8125 "/></g></g></g><g fill="#f3658c" fill-opacity="1"><g transform="translate(117.74215, 313.578562)"><g><path d="M 21.234375 -6.46875 C 21.390625 -6.363281 21.476562 -6.265625 21.5 -6.171875 C 21.519531 -6.066406 21.5 -5.96875 21.4375 -5.875 C 21.375 -5.78125 21.304688 -5.695312 21.234375 -5.625 C 21.128906 -5.519531 21.0625 -5.441406 21.03125 -5.390625 C 18.90625 -2.109375 15.890625 0.632812 11.984375 2.84375 C 11.566406 3.082031 11.039062 3.203125 10.40625 3.203125 L 10.328125 3.203125 C 9.679688 3.203125 9.191406 3.035156 8.859375 2.703125 C 8.503906 2.367188 8.328125 1.863281 8.328125 1.1875 C 8.328125 0.601562 8.441406 0.0703125 8.671875 -0.40625 C 8.898438 -0.882812 9.144531 -1.335938 9.40625 -1.765625 L 9.78125 -2.390625 C 9.863281 -2.546875 9.945312 -2.695312 10.03125 -2.84375 C 10.125 -3 10.207031 -3.15625 10.28125 -3.3125 L 10.328125 -3.421875 C 10.378906 -3.523438 10.421875 -3.65625 10.453125 -3.8125 C 10.492188 -3.96875 10.425781 -4.132812 10.25 -4.3125 C 10.039062 -4.519531 9.796875 -4.625 9.515625 -4.625 C 9.410156 -4.625 9.296875 -4.597656 9.171875 -4.546875 C 8.660156 -4.441406 8.148438 -4.316406 7.640625 -4.171875 C 7.140625 -4.035156 6.632812 -3.890625 6.125 -3.734375 C 5.476562 -3.503906 4.851562 -3.234375 4.25 -2.921875 C 3.65625 -2.617188 3.070312 -2.300781 2.5 -1.96875 C 2.25 -1.832031 2 -1.691406 1.75 -1.546875 C 1.507812 -1.410156 1.257812 -1.28125 1 -1.15625 L 0.84375 -1.078125 C 0.738281 -1.003906 0.625 -0.941406 0.5 -0.890625 C 0.375 -0.835938 0.242188 -0.8125 0.109375 -0.8125 C -0.117188 -0.8125 -0.359375 -0.914062 -0.609375 -1.125 C -0.898438 -1.375 -1.046875 -1.609375 -1.046875 -1.828125 C -1.046875 -2.046875 -1.019531 -2.269531 -0.96875 -2.5 L -0.921875 -2.65625 C -0.460938 -4.757812 0.316406 -6.632812 1.421875 -8.28125 L 1.5 -8.40625 C 1.550781 -8.5 1.613281 -8.59375 1.6875 -8.6875 C 1.769531 -8.78125 1.863281 -8.828125 1.96875 -8.828125 C 2.039062 -8.828125 2.117188 -8.800781 2.203125 -8.75 C 2.378906 -8.664062 2.492188 -8.5625 2.546875 -8.4375 C 2.671875 -8.175781 2.675781 -7.875 2.5625 -7.53125 C 2.445312 -7.1875 2.328125 -6.898438 2.203125 -6.671875 C 2.117188 -6.515625 2.078125 -6.410156 2.078125 -6.359375 L 0.734375 -2.84375 C 0.703125 -2.800781 0.671875 -2.71875 0.640625 -2.59375 C 0.617188 -2.476562 0.660156 -2.382812 0.765625 -2.3125 C 0.867188 -2.238281 1 -2.203125 1.15625 -2.203125 C 1.3125 -2.203125 1.488281 -2.234375 1.6875 -2.296875 C 1.894531 -2.359375 2.039062 -2.414062 2.125 -2.46875 C 2.25 -2.519531 2.363281 -2.578125 2.46875 -2.640625 C 2.570312 -2.703125 2.675781 -2.769531 2.78125 -2.84375 C 2.90625 -2.945312 3.023438 -3.035156 3.140625 -3.109375 C 3.253906 -3.191406 3.375 -3.257812 3.5 -3.3125 C 3.914062 -3.519531 4.332031 -3.710938 4.75 -3.890625 C 5.175781 -4.066406 5.609375 -4.25 6.046875 -4.4375 C 7.097656 -4.875 8.085938 -5.15625 9.015625 -5.28125 C 9.171875 -5.300781 9.3125 -5.3125 9.4375 -5.3125 C 10.101562 -5.3125 10.628906 -5.09375 11.015625 -4.65625 C 11.453125 -4.175781 11.566406 -3.570312 11.359375 -2.84375 C 11.265625 -2.414062 11.132812 -1.992188 10.96875 -1.578125 C 10.800781 -1.171875 10.640625 -0.757812 10.484375 -0.34375 C 10.378906 -0.113281 10.28125 0.113281 10.1875 0.34375 C 10.101562 0.570312 10.007812 0.804688 9.90625 1.046875 L 9.859375 1.1875 C 9.785156 1.320312 9.734375 1.476562 9.703125 1.65625 C 9.679688 1.832031 9.75 2 9.90625 2.15625 C 10.101562 2.363281 10.332031 2.46875 10.59375 2.46875 C 10.695312 2.46875 10.800781 2.453125 10.90625 2.421875 C 11.007812 2.398438 11.113281 2.375 11.21875 2.34375 C 12.425781 1.988281 13.476562 1.457031 14.375 0.75 C 15.269531 0.0390625 16.078125 -0.671875 16.796875 -1.390625 C 17.390625 -1.972656 18.023438 -2.628906 18.703125 -3.359375 C 19.390625 -4.097656 19.960938 -4.929688 20.421875 -5.859375 L 20.5 -5.9375 C 20.550781 -6.0625 20.617188 -6.191406 20.703125 -6.328125 C 20.796875 -6.472656 20.90625 -6.546875 21.03125 -6.546875 C 21.082031 -6.546875 21.148438 -6.519531 21.234375 -6.46875 Z M 21.234375 -6.46875 "/></g></g></g><g fill="#f3658c" fill-opacity="1"><g transform="translate(138.126726, 313.578562)"><g><path d="M 3.359375 -11.9375 C 3.710938 -11.738281 3.859375 -11.519531 3.796875 -11.28125 C 3.734375 -11.050781 3.675781 -10.847656 3.625 -10.671875 C 3.257812 -9.492188 2.851562 -8.328125 2.40625 -7.171875 C 1.957031 -6.015625 1.515625 -4.84375 1.078125 -3.65625 C 0.742188 -2.726562 0.421875 -1.859375 0.109375 -1.046875 C -0.171875 -0.347656 -0.453125 0.335938 -0.734375 1.015625 C -1.015625 1.703125 -1.296875 2.390625 -1.578125 3.078125 C -2.578125 5.316406 -3.632812 7.535156 -4.75 9.734375 C -5.875 11.929688 -7.191406 13.988281 -8.703125 15.90625 C -8.984375 16.269531 -9.289062 16.617188 -9.625 16.953125 C -9.96875 17.285156 -10.351562 17.554688 -10.78125 17.765625 C -11.757812 18.203125 -12.40625 17.816406 -12.71875 16.609375 C -12.820312 16.140625 -12.8125 15.707031 -12.6875 15.3125 C -12.570312 14.914062 -12.441406 14.523438 -12.296875 14.140625 C -11.597656 12.472656 -10.726562 10.929688 -9.6875 9.515625 C -8.644531 8.097656 -7.492188 6.789062 -6.234375 5.59375 C -4.953125 4.40625 -3.945312 3.046875 -3.21875 1.515625 C -2.488281 -0.00390625 -1.8125 -1.5625 -1.1875 -3.15625 C -0.707031 -4.363281 -0.238281 -5.570312 0.21875 -6.78125 C 0.6875 -7.988281 1.15625 -9.195312 1.625 -10.40625 C 1.71875 -10.613281 1.8125 -10.804688 1.90625 -10.984375 C 2 -11.160156 2.109375 -11.335938 2.234375 -11.515625 C 2.335938 -11.722656 2.476562 -11.882812 2.65625 -12 C 2.832031 -12.113281 3.066406 -12.09375 3.359375 -11.9375 Z M -7.9375 11.828125 C -7.445312 10.929688 -6.992188 10.003906 -6.578125 9.046875 C -6.171875 8.097656 -5.765625 7.148438 -5.359375 6.203125 C -5.429688 6.378906 -5.582031 6.550781 -5.8125 6.71875 C -6.050781 6.882812 -6.242188 7.046875 -6.390625 7.203125 C -6.578125 7.378906 -6.757812 7.554688 -6.9375 7.734375 C -7.113281 7.921875 -7.28125 8.117188 -7.4375 8.328125 C -7.789062 8.679688 -8.132812 9.054688 -8.46875 9.453125 C -8.8125 9.859375 -9.132812 10.28125 -9.4375 10.71875 C -9.71875 11.125 -10 11.535156 -10.28125 11.953125 C -10.570312 12.378906 -10.816406 12.828125 -11.015625 13.296875 C -11.148438 13.578125 -11.285156 13.859375 -11.421875 14.140625 C -11.566406 14.421875 -11.675781 14.71875 -11.75 15.03125 C -11.800781 15.257812 -11.78125 15.550781 -11.6875 15.90625 C -11.601562 16.269531 -11.378906 16.390625 -11.015625 16.265625 C -10.609375 16.109375 -10.304688 15.835938 -10.109375 15.453125 C -9.921875 15.066406 -9.722656 14.707031 -9.515625 14.375 C -9.253906 13.9375 -8.984375 13.507812 -8.703125 13.09375 C -8.421875 12.6875 -8.164062 12.265625 -7.9375 11.828125 Z M 4.96875 -15.375 C 5.125 -14.882812 5.144531 -14.484375 5.03125 -14.171875 C 4.914062 -13.867188 4.613281 -13.691406 4.125 -13.640625 C 3.707031 -13.609375 3.359375 -13.722656 3.078125 -13.984375 C 2.796875 -14.242188 2.601562 -14.566406 2.5 -14.953125 C 2.375 -15.460938 2.398438 -15.882812 2.578125 -16.21875 C 2.753906 -16.550781 3.101562 -16.742188 3.625 -16.796875 C 4.132812 -16.828125 4.457031 -16.675781 4.59375 -16.34375 C 4.738281 -16.007812 4.863281 -15.6875 4.96875 -15.375 Z M 4.96875 -15.375 "/></g></g></g><g fill="#f3658c" fill-opacity="1"><g transform="translate(143.251776, 313.578562)"><g><path d="M 21.734375 -6.09375 C 21.835938 -6.007812 21.890625 -5.929688 21.890625 -5.859375 C 21.910156 -5.773438 21.832031 -5.644531 21.65625 -5.46875 C 20.46875 -4.3125 19.160156 -3.207031 17.734375 -2.15625 C 16.316406 -1.101562 14.65625 -0.320312 12.75 0.1875 C 12.3125 0.320312 11.890625 0.390625 11.484375 0.390625 C 10.734375 0.390625 10.117188 0.15625 9.640625 -0.3125 C 8.867188 -0.945312 8.390625 -2.050781 8.203125 -3.625 L 8.171875 -3.890625 L 7.046875 -2.96875 C 6.691406 -2.65625 6.332031 -2.34375 5.96875 -2.03125 C 5.613281 -1.726562 5.253906 -1.4375 4.890625 -1.15625 C 3.960938 -0.40625 2.960938 0.132812 1.890625 0.46875 C 1.554688 0.5625 1.273438 0.609375 1.046875 0.609375 C 0.578125 0.609375 0.164062 0.457031 -0.1875 0.15625 C -0.832031 -0.382812 -1.101562 -1.039062 -1 -1.8125 C -0.644531 -4.96875 0.738281 -8.101562 3.15625 -11.21875 C 3.332031 -11.46875 3.523438 -11.59375 3.734375 -11.59375 C 3.890625 -11.59375 4.046875 -11.53125 4.203125 -11.40625 C 4.378906 -11.25 4.453125 -11.09375 4.421875 -10.9375 C 4.398438 -10.789062 4.335938 -10.613281 4.234375 -10.40625 C 4.054688 -9.988281 3.859375 -9.585938 3.640625 -9.203125 C 3.421875 -8.816406 3.195312 -8.421875 2.96875 -8.015625 C 2.40625 -6.984375 1.863281 -5.9375 1.34375 -4.875 C 0.832031 -3.8125 0.523438 -2.660156 0.421875 -1.421875 C 0.421875 -1.316406 0.425781 -1.203125 0.4375 -1.078125 C 0.457031 -0.953125 0.515625 -0.835938 0.609375 -0.734375 C 0.742188 -0.609375 0.890625 -0.53125 1.046875 -0.5 C 1.117188 -0.5 1.191406 -0.5 1.265625 -0.5 C 1.554688 -0.5 1.832031 -0.554688 2.09375 -0.671875 C 2.363281 -0.785156 2.613281 -0.910156 2.84375 -1.046875 C 6.03125 -2.679688 8.242188 -4.835938 9.484375 -7.515625 C 9.535156 -7.585938 9.585938 -7.726562 9.640625 -7.9375 C 9.710938 -8.164062 9.800781 -8.382812 9.90625 -8.59375 C 10.007812 -8.800781 10.160156 -8.90625 10.359375 -8.90625 C 10.515625 -8.90625 10.679688 -8.835938 10.859375 -8.703125 C 11.097656 -8.578125 11.253906 -8.4375 11.328125 -8.28125 C 11.398438 -8.101562 11.40625 -7.921875 11.34375 -7.734375 C 11.28125 -7.554688 11.195312 -7.378906 11.09375 -7.203125 C 11.070312 -7.097656 11.039062 -7.003906 11 -6.921875 C 10.957031 -6.847656 10.925781 -6.773438 10.90625 -6.703125 C 10.820312 -6.492188 10.742188 -6.28125 10.671875 -6.0625 C 10.597656 -5.84375 10.519531 -5.632812 10.4375 -5.4375 C 10.28125 -5 10.128906 -4.546875 9.984375 -4.078125 C 9.847656 -3.617188 9.753906 -3.132812 9.703125 -2.625 C 9.628906 -1.90625 9.757812 -1.363281 10.09375 -1 C 10.425781 -0.664062 11.003906 -0.488281 11.828125 -0.46875 C 12.703125 -0.46875 13.476562 -0.613281 14.15625 -0.90625 C 14.84375 -1.195312 15.46875 -1.523438 16.03125 -1.890625 C 18.207031 -3.171875 19.914062 -4.492188 21.15625 -5.859375 C 21.175781 -5.878906 21.210938 -5.929688 21.265625 -6.015625 C 21.367188 -6.140625 21.445312 -6.203125 21.5 -6.203125 C 21.550781 -6.203125 21.628906 -6.164062 21.734375 -6.09375 Z M 21.734375 -6.09375 "/></g></g></g><g fill="#f3658c" fill-opacity="1"><g transform="translate(164.021703, 313.578562)"><g><path d="M 28.703125 -5.59375 C 28.734375 -5.507812 28.734375 -5.378906 28.703125 -5.203125 C 28.679688 -5.023438 28.539062 -4.742188 28.28125 -4.359375 C 26.945312 -2.328125 25.316406 -0.566406 23.390625 0.921875 C 22.460938 1.640625 21.5 2.242188 20.5 2.734375 L 20.34375 2.8125 C 19.90625 3.019531 19.367188 3.25 18.734375 3.5 C 18.109375 3.757812 17.476562 3.890625 16.84375 3.890625 C 15.988281 3.890625 15.28125 3.617188 14.71875 3.078125 C 14.125 2.515625 13.8125 1.953125 13.78125 1.390625 C 13.757812 0.828125 13.816406 0.273438 13.953125 -0.265625 C 14.023438 -0.523438 14.128906 -0.765625 14.265625 -0.984375 C 14.410156 -1.203125 14.5625 -1.414062 14.71875 -1.625 C 14.769531 -1.71875 14.828125 -1.800781 14.890625 -1.875 C 14.953125 -1.957031 15.007812 -2.050781 15.0625 -2.15625 C 15.21875 -2.382812 15.347656 -2.644531 15.453125 -2.9375 C 15.554688 -3.238281 15.539062 -3.476562 15.40625 -3.65625 C 15.3125 -3.84375 15.117188 -3.9375 14.828125 -3.9375 C 14.703125 -3.9375 14.5625 -3.910156 14.40625 -3.859375 C 13.96875 -3.773438 13.582031 -3.609375 13.25 -3.359375 C 12.914062 -3.117188 12.597656 -2.875 12.296875 -2.625 C 12.109375 -2.46875 11.925781 -2.304688 11.75 -2.140625 C 11.570312 -1.972656 11.367188 -1.835938 11.140625 -1.734375 C 11.035156 -1.660156 10.925781 -1.585938 10.8125 -1.515625 C 10.695312 -1.453125 10.585938 -1.382812 10.484375 -1.3125 C 10.171875 -1.132812 9.851562 -0.953125 9.53125 -0.765625 C 9.21875 -0.585938 8.867188 -0.460938 8.484375 -0.390625 C 8.296875 -0.359375 8.113281 -0.34375 7.9375 -0.34375 C 7.550781 -0.34375 7.253906 -0.445312 7.046875 -0.65625 C 6.796875 -0.914062 6.695312 -1.351562 6.75 -1.96875 C 6.769531 -2.632812 6.90625 -3.242188 7.15625 -3.796875 C 7.414062 -4.347656 7.6875 -4.878906 7.96875 -5.390625 C 8.125 -5.648438 8.269531 -5.898438 8.40625 -6.140625 C 8.550781 -6.390625 8.691406 -6.640625 8.828125 -6.890625 C 8.953125 -7.078125 9.066406 -7.257812 9.171875 -7.4375 C 9.273438 -7.613281 9.378906 -7.789062 9.484375 -7.96875 C 9.535156 -8.070312 9.597656 -8.179688 9.671875 -8.296875 C 9.742188 -8.421875 9.820312 -8.53125 9.90625 -8.625 C 10.007812 -8.757812 10.109375 -8.898438 10.203125 -9.046875 C 10.304688 -9.203125 10.398438 -9.359375 10.484375 -9.515625 C 10.734375 -10.054688 10.796875 -10.40625 10.671875 -10.5625 C 10.566406 -10.6875 10.425781 -10.75 10.25 -10.75 C 10.070312 -10.75 9.898438 -10.695312 9.734375 -10.59375 C 9.566406 -10.488281 9.46875 -10.425781 9.4375 -10.40625 C 8.894531 -9.988281 8.382812 -9.539062 7.90625 -9.0625 C 7.4375 -8.59375 6.972656 -8.128906 6.515625 -7.671875 C 6.328125 -7.484375 6.148438 -7.300781 5.984375 -7.125 C 5.816406 -6.945312 5.644531 -6.769531 5.46875 -6.59375 C 3.957031 -5.070312 2.429688 -3.582031 0.890625 -2.125 C 0.753906 -2.019531 0.625 -1.925781 0.5 -1.84375 C 0.375 -1.769531 0.242188 -1.734375 0.109375 -1.734375 C 0.0351562 -1.734375 -0.0234375 -1.734375 -0.078125 -1.734375 C -0.253906 -1.785156 -0.40625 -1.894531 -0.53125 -2.0625 C -0.664062 -2.226562 -0.757812 -2.390625 -0.8125 -2.546875 C -0.863281 -2.722656 -0.875 -2.898438 -0.84375 -3.078125 C -0.820312 -3.265625 -0.785156 -3.445312 -0.734375 -3.625 C -0.242188 -5.601562 0.539062 -7.390625 1.625 -8.984375 C 1.675781 -9.078125 1.738281 -9.160156 1.8125 -9.234375 C 1.882812 -9.316406 1.960938 -9.382812 2.046875 -9.4375 C 2.148438 -9.488281 2.25 -9.515625 2.34375 -9.515625 C 2.476562 -9.515625 2.597656 -9.476562 2.703125 -9.40625 C 2.796875 -9.320312 2.867188 -9.222656 2.921875 -9.109375 C 2.972656 -8.992188 3 -8.882812 3 -8.78125 C 3 -8.675781 2.984375 -8.566406 2.953125 -8.453125 C 2.929688 -8.335938 2.894531 -8.226562 2.84375 -8.125 L 1.390625 -4.390625 C 1.304688 -4.179688 1.316406 -4.003906 1.421875 -3.859375 C 1.472656 -3.773438 1.550781 -3.734375 1.65625 -3.734375 C 1.757812 -3.734375 1.847656 -3.757812 1.921875 -3.8125 C 2.460938 -4.300781 2.988281 -4.796875 3.5 -5.296875 C 4.019531 -5.796875 4.535156 -6.300781 5.046875 -6.8125 C 5.921875 -7.632812 6.800781 -8.460938 7.6875 -9.296875 C 8.570312 -10.140625 9.476562 -10.957031 10.40625 -11.75 C 10.5625 -11.851562 10.722656 -11.957031 10.890625 -12.0625 C 11.054688 -12.164062 11.226562 -12.21875 11.40625 -12.21875 C 11.507812 -12.21875 11.613281 -12.203125 11.71875 -12.171875 C 12 -12.066406 12.222656 -11.875 12.390625 -11.59375 C 12.554688 -11.3125 12.625 -11.054688 12.59375 -10.828125 C 12.59375 -10.546875 12.53125 -10.265625 12.40625 -9.984375 C 12.28125 -9.703125 12.140625 -9.429688 11.984375 -9.171875 C 11.929688 -9.066406 11.882812 -8.96875 11.84375 -8.875 C 11.8125 -8.789062 11.769531 -8.707031 11.71875 -8.625 C 11.507812 -8.21875 11.300781 -7.8125 11.09375 -7.40625 C 10.882812 -7.007812 10.679688 -6.609375 10.484375 -6.203125 L 10.28125 -5.859375 C 10.050781 -5.421875 9.8125 -4.96875 9.5625 -4.5 C 9.320312 -4.039062 9.078125 -3.566406 8.828125 -3.078125 L 7.859375 -1.3125 L 8.171875 -1.390625 C 8.804688 -1.515625 9.363281 -1.691406 9.84375 -1.921875 C 10.320312 -2.148438 10.78125 -2.394531 11.21875 -2.65625 C 11.394531 -2.757812 11.570312 -2.851562 11.75 -2.9375 C 11.925781 -3.03125 12.109375 -3.128906 12.296875 -3.234375 C 12.472656 -3.316406 12.644531 -3.398438 12.8125 -3.484375 C 12.976562 -3.578125 13.140625 -3.675781 13.296875 -3.78125 C 13.628906 -3.957031 13.976562 -4.132812 14.34375 -4.3125 C 14.71875 -4.488281 15.125 -4.601562 15.5625 -4.65625 C 15.695312 -4.6875 15.8125 -4.703125 15.90625 -4.703125 C 16.0625 -4.703125 16.222656 -4.679688 16.390625 -4.640625 C 16.554688 -4.597656 16.691406 -4.515625 16.796875 -4.390625 C 16.972656 -4.160156 17 -3.816406 16.875 -3.359375 C 16.769531 -2.992188 16.644531 -2.628906 16.5 -2.265625 C 16.363281 -1.910156 16.234375 -1.566406 16.109375 -1.234375 C 16.003906 -0.953125 15.894531 -0.675781 15.78125 -0.40625 C 15.664062 -0.132812 15.566406 0.140625 15.484375 0.421875 C 15.460938 0.472656 15.425781 0.5625 15.375 0.6875 C 15.269531 0.945312 15.195312 1.238281 15.15625 1.5625 C 15.125 1.882812 15.285156 2.222656 15.640625 2.578125 C 16.023438 2.960938 16.5 3.15625 17.0625 3.15625 C 17.25 3.15625 17.425781 3.140625 17.59375 3.109375 C 17.757812 3.085938 17.921875 3.050781 18.078125 3 C 19.535156 2.664062 20.816406 2.113281 21.921875 1.34375 C 23.023438 0.570312 23.988281 -0.222656 24.8125 -1.046875 C 25.425781 -1.609375 25.960938 -2.222656 26.421875 -2.890625 C 26.890625 -3.554688 27.289062 -4.171875 27.625 -4.734375 C 27.832031 -5.097656 28.019531 -5.347656 28.1875 -5.484375 C 28.351562 -5.628906 28.472656 -5.703125 28.546875 -5.703125 C 28.597656 -5.703125 28.648438 -5.664062 28.703125 -5.59375 Z M 28.703125 -5.59375 "/></g></g></g></svg>