<svg xmlns="http://www.w3.org/2000/svg" xmlns:xlink="http://www.w3.org/1999/xlink" width="500" zoomAndPan="magnify" viewBox="0 0 375 374.999991" height="500" preserveAspectRatio="xMidYMid meet" version="1.0"><defs><g/><clipPath id="565afa87a5"><path d="M 67.75 221.410156 L 187.5 221.410156 L 187.5 276.921875 L 67.75 276.921875 Z M 67.75 221.410156 " clip-rule="nonzero"/></clipPath><clipPath id="441edec987"><path d="M 124.640625 166.402344 L 183.890625 166.402344 L 183.890625 225.652344 L 124.640625 225.652344 Z M 124.640625 166.402344 " clip-rule="nonzero"/></clipPath></defs><g fill="#fb81b0" fill-opacity="1"><g transform="translate(94.81749, 266.942607)"><g><path d="M 43.296875 -30.03125 C 43.296875 -25.882812 44.0625 -21.960938 45.59375 -18.265625 C 47.125 -14.566406 49.238281 -11.363281 51.9375 -8.65625 C 54.644531 -5.945312 57.800781 -3.828125 61.40625 -2.296875 C 65.019531 -0.765625 68.898438 0 73.046875 0 L 6.765625 0 C 10.734375 -0.539062 14.566406 -1.800781 18.265625 -3.78125 C 21.960938 -5.769531 25.429688 -8.25 28.671875 -11.21875 C 31.921875 -14.195312 34.804688 -17.488281 37.328125 -21.09375 C 39.859375 -24.707031 41.847656 -28.410156 43.296875 -32.203125 Z M 95.234375 0 C 99.023438 0 102.269531 -1.578125 104.96875 -4.734375 C 107.675781 -7.890625 109.03125 -11.453125 109.03125 -15.421875 C 109.03125 -16.140625 109.03125 -16.859375 109.03125 -17.578125 C 109.03125 -18.304688 108.851562 -19.03125 108.5 -19.75 L 100.65625 -42.484375 L 100.109375 -44.109375 L 80.890625 -99.5625 C 79.628906 -102.632812 77.378906 -104.171875 74.140625 -104.171875 C 71.066406 -104.171875 68.898438 -102.632812 67.640625 -99.5625 L 100.109375 -189.390625 L 130.140625 -103.078125 C 131.398438 -99.472656 132.84375 -95.191406 134.46875 -90.234375 C 136.09375 -85.273438 137.535156 -80.988281 138.796875 -77.375 L 160.984375 -14.0625 C 162.242188 -10.457031 164.453125 -7.210938 167.609375 -4.328125 C 170.765625 -1.441406 174.421875 0 178.578125 0 Z M 95.234375 0 "/></g></g></g><g clip-path="url(#565afa87a5)"><path fill="#020d27" d="M 67.75 221.410156 L 187.441406 221.410156 L 187.441406 276.921875 L 67.75 276.921875 Z M 67.75 221.410156 " fill-opacity="1" fill-rule="nonzero"/></g><g clip-path="url(#441edec987)"><path fill="#fb81b0" d="M 154.246094 166.402344 C 151.359375 190.785156 149.023438 193.125 124.640625 196.011719 C 124.691406 196.015625 124.738281 196.023438 124.789062 196.027344 L 124.792969 196.027344 C 149.03125 198.90625 151.367188 201.285156 154.246094 225.617188 C 157.132812 201.234375 159.472656 198.894531 183.855469 196.011719 C 159.472656 193.125 157.132812 190.785156 154.246094 166.402344 Z M 154.246094 166.402344 " fill-opacity="1" fill-rule="nonzero"/></g><g fill="#fb81b0" fill-opacity="1"><g transform="translate(95.269692, 241.382108)"><g><path d="M 3.09375 14.046875 C 2.957031 14.046875 2.800781 13.984375 2.625 13.859375 C 2.332031 13.648438 2.195312 13.425781 2.21875 13.1875 C 2.25 12.957031 2.34375 12.6875 2.5 12.375 C 2.582031 12.1875 2.632812 12.054688 2.65625 11.984375 C 3.125 10.671875 3.671875 9.429688 4.296875 8.265625 C 4.929688 7.109375 5.519531 6.085938 6.0625 5.203125 C 6.976562 3.691406 7.160156 1.828125 6.609375 -0.390625 C 6.140625 -2.191406 5.070312 -3.613281 3.40625 -4.65625 C 3.320312 -4.6875 3.203125 -4.753906 3.046875 -4.859375 C 2.765625 -5.015625 2.535156 -5.15625 2.359375 -5.28125 C 2.191406 -5.414062 2.109375 -5.597656 2.109375 -5.828125 C 2.109375 -6.117188 2.207031 -6.304688 2.40625 -6.390625 C 2.601562 -6.484375 2.84375 -6.570312 3.125 -6.65625 L 3.359375 -6.6875 C 6.179688 -7.445312 8.859375 -7.828125 11.390625 -7.828125 C 11.546875 -7.828125 11.753906 -7.828125 12.015625 -7.828125 C 12.273438 -7.828125 12.40625 -7.828125 12.40625 -7.828125 C 13.5 -7.828125 14.375 -8.296875 15.03125 -9.234375 C 15.582031 -10.046875 16.125 -10.851562 16.65625 -11.65625 C 17.1875 -12.46875 17.710938 -13.28125 18.234375 -14.09375 C 19.878906 -16.59375 21.5625 -19.101562 23.28125 -21.625 C 25.007812 -24.144531 26.863281 -26.550781 28.84375 -28.84375 C 29.207031 -29.257812 29.582031 -29.65625 29.96875 -30.03125 C 30.363281 -30.414062 30.828125 -30.710938 31.359375 -30.921875 C 31.617188 -31.046875 31.851562 -31.109375 32.0625 -31.109375 C 32.632812 -31.109375 33.0625 -30.691406 33.34375 -29.859375 C 33.601562 -29.078125 33.707031 -28.335938 33.65625 -27.640625 C 33.601562 -26.953125 33.523438 -26.269531 33.421875 -25.59375 C 32.847656 -22.175781 32.070312 -18.863281 31.09375 -15.65625 C 30.113281 -12.445312 29.117188 -9.289062 28.109375 -6.1875 C 27.847656 -5.476562 27.601562 -4.773438 27.375 -4.078125 C 27.15625 -3.390625 26.925781 -2.695312 26.6875 -2 C 26.09375 -0.164062 25.472656 1.644531 24.828125 3.4375 C 24.191406 5.238281 23.546875 7.054688 22.890625 8.890625 C 22.867188 8.960938 22.832031 9.078125 22.78125 9.234375 C 22.75 9.390625 22.703125 9.546875 22.640625 9.703125 C 22.578125 9.859375 22.476562 9.9375 22.34375 9.9375 C 22.238281 9.9375 22.109375 9.898438 21.953125 9.828125 C 21.828125 9.742188 21.738281 9.664062 21.6875 9.59375 C 21.632812 9.488281 21.632812 9.363281 21.6875 9.21875 C 21.738281 9.070312 21.789062 8.945312 21.84375 8.84375 C 21.894531 8.664062 21.929688 8.535156 21.953125 8.453125 C 22.609375 5.742188 23.359375 3.054688 24.203125 0.390625 C 25.054688 -2.265625 25.910156 -4.875 26.765625 -7.4375 C 27.367188 -9.15625 27.957031 -10.894531 28.53125 -12.65625 C 29.101562 -14.414062 29.648438 -16.1875 30.171875 -17.96875 C 30.273438 -18.300781 30.4375 -18.859375 30.65625 -19.640625 C 30.882812 -20.429688 31.125 -21.320312 31.375 -22.3125 C 31.625 -23.300781 31.835938 -24.289062 32.015625 -25.28125 C 32.203125 -26.269531 32.328125 -27.132812 32.390625 -27.875 C 32.453125 -28.625 32.40625 -29.144531 32.25 -29.4375 C 32.175781 -29.539062 32.085938 -29.617188 31.984375 -29.671875 L 31.9375 -29.671875 L 31.75 -29.703125 C 31.613281 -29.703125 31.492188 -29.671875 31.390625 -29.609375 C 31.285156 -29.546875 31.21875 -29.5 31.1875 -29.46875 C 30.875 -29.238281 30.59375 -28.976562 30.34375 -28.6875 C 30.101562 -28.40625 29.863281 -28.117188 29.625 -27.828125 C 29.5 -27.671875 29.367188 -27.515625 29.234375 -27.359375 C 29.109375 -27.203125 28.976562 -27.046875 28.84375 -26.890625 C 27.9375 -25.867188 27.007812 -24.773438 26.0625 -23.609375 C 25.15625 -22.398438 24.28125 -21.1875 23.4375 -19.96875 C 22.601562 -18.757812 21.820312 -17.609375 21.09375 -16.515625 L 20.203125 -15.109375 C 19.441406 -13.960938 18.675781 -12.804688 17.90625 -11.640625 C 17.132812 -10.484375 16.34375 -9.34375 15.53125 -8.21875 L 15.375 -7.984375 L 15.734375 -7.984375 C 17.171875 -7.910156 18.507812 -7.8125 19.75 -7.6875 C 20.988281 -7.570312 22.21875 -7.367188 23.4375 -7.078125 C 23.5 -7.054688 23.566406 -7.046875 23.640625 -7.046875 C 23.722656 -7.046875 23.789062 -7.046875 23.84375 -7.046875 C 23.96875 -7.015625 24.082031 -6.992188 24.1875 -6.984375 C 24.289062 -6.972656 24.382812 -6.925781 24.46875 -6.84375 C 24.539062 -6.789062 24.59375 -6.675781 24.625 -6.5 C 24.644531 -6.238281 24.515625 -6.109375 24.234375 -6.109375 C 24.148438 -6.109375 24.0625 -6.113281 23.96875 -6.125 C 23.882812 -6.132812 23.789062 -6.15625 23.6875 -6.1875 L 23.53125 -6.21875 C 23.3125 -6.269531 23.082031 -6.316406 22.84375 -6.359375 C 22.613281 -6.398438 22.382812 -6.457031 22.15625 -6.53125 C 21.84375 -6.582031 21.519531 -6.644531 21.1875 -6.71875 C 20.863281 -6.800781 20.546875 -6.859375 20.234375 -6.890625 C 19.453125 -7.015625 18.75 -7.078125 18.125 -7.078125 C 15.613281 -7.078125 13.835938 -6.035156 12.796875 -3.953125 C 12.359375 -3.066406 11.898438 -2.195312 11.421875 -1.34375 C 10.953125 -0.5 10.472656 0.335938 9.984375 1.171875 C 9.117188 2.660156 8.269531 4.1875 7.4375 5.75 C 6.601562 7.320312 5.882812 8.96875 5.28125 10.6875 C 5.125 11.101562 4.9375 11.5 4.71875 11.875 C 4.5 12.257812 4.269531 12.617188 4.03125 12.953125 C 3.976562 13.035156 3.910156 13.15625 3.828125 13.3125 C 3.753906 13.488281 3.65625 13.65625 3.53125 13.8125 C 3.414062 13.96875 3.269531 14.046875 3.09375 14.046875 Z M 13.078125 -6.921875 C 12.472656 -6.972656 11.882812 -7 11.3125 -7 C 10.03125 -7 8.816406 -6.898438 7.671875 -6.703125 C 6.523438 -6.515625 5.40625 -6.300781 4.3125 -6.0625 C 4.070312 -6.007812 3.910156 -5.941406 3.828125 -5.859375 C 3.753906 -5.785156 3.71875 -5.710938 3.71875 -5.640625 C 3.71875 -5.554688 3.75 -5.445312 3.8125 -5.3125 C 3.882812 -5.1875 4.035156 -5.035156 4.265625 -4.859375 C 6.273438 -3.285156 7.4375 -1.128906 7.75 1.609375 L 7.78125 2.109375 L 13.390625 -6.890625 Z M 13.078125 -6.921875 "/></g></g></g><g fill="#fb81b0" fill-opacity="1"><g transform="translate(126.386451, 241.382108)"><g><path d="M 17.109375 -6.0625 C 17.265625 -6.039062 17.351562 -6.003906 17.375 -5.953125 C 17.40625 -5.867188 17.351562 -5.773438 17.21875 -5.671875 C 16.75 -5.410156 16.226562 -5.28125 15.65625 -5.28125 C 14.894531 -5.28125 14.125 -5.472656 13.34375 -5.859375 C 12.5625 -6.253906 11.894531 -6.765625 11.34375 -7.390625 C 10.851562 -7.941406 10.476562 -8.347656 10.21875 -8.609375 C 9.957031 -8.867188 9.679688 -9 9.390625 -9 C 9.210938 -9 9.003906 -8.925781 8.765625 -8.78125 C 8.535156 -8.644531 8.25 -8.457031 7.90625 -8.21875 C 6.65625 -7.332031 5.476562 -6.359375 4.375 -5.296875 C 3.28125 -4.242188 2.226562 -3.179688 1.21875 -2.109375 L 0.234375 -1.140625 C 0.210938 -1.085938 0.148438 -0.992188 0.046875 -0.859375 C -0.0351562 -0.753906 -0.125 -0.65625 -0.21875 -0.5625 C -0.3125 -0.476562 -0.421875 -0.4375 -0.546875 -0.4375 C -0.703125 -0.4375 -0.898438 -0.515625 -1.140625 -0.671875 C -1.421875 -0.878906 -1.546875 -1.09375 -1.515625 -1.3125 C -1.492188 -1.53125 -1.457031 -1.742188 -1.40625 -1.953125 L -1.328125 -2.109375 C -0.285156 -5.421875 0.988281 -8.34375 2.5 -10.875 L 2.578125 -10.953125 C 2.660156 -11.109375 2.765625 -11.265625 2.890625 -11.421875 C 3.023438 -11.578125 3.171875 -11.65625 3.328125 -11.65625 C 3.429688 -11.65625 3.546875 -11.617188 3.671875 -11.546875 C 3.859375 -11.410156 3.976562 -11.28125 4.03125 -11.15625 C 4.082031 -11.019531 4.082031 -10.878906 4.03125 -10.734375 C 3.976562 -10.597656 3.910156 -10.460938 3.828125 -10.328125 C 3.773438 -10.171875 3.738281 -10.066406 3.71875 -10.015625 L 3.40625 -9.28125 C 3.25 -8.882812 3.082031 -8.484375 2.90625 -8.078125 C 2.738281 -7.671875 2.566406 -7.273438 2.390625 -6.890625 C 2.285156 -6.628906 2.164062 -6.367188 2.03125 -6.109375 C 1.90625 -5.847656 1.789062 -5.585938 1.6875 -5.328125 C 1.65625 -5.328125 1.597656 -5.222656 1.515625 -5.015625 C 1.441406 -4.804688 1.375 -4.582031 1.3125 -4.34375 C 1.25 -4.113281 1.242188 -3.957031 1.296875 -3.875 L 1.375 -3.796875 L 1.453125 -3.796875 C 1.710938 -3.847656 1.929688 -3.953125 2.109375 -4.109375 C 2.296875 -4.265625 2.46875 -4.4375 2.625 -4.625 C 2.675781 -4.675781 2.734375 -4.734375 2.796875 -4.796875 C 2.859375 -4.859375 2.929688 -4.929688 3.015625 -5.015625 L 4.65625 -6.375 C 5.175781 -6.820312 5.695312 -7.257812 6.21875 -7.6875 C 6.738281 -8.125 7.257812 -8.550781 7.78125 -8.96875 C 8.488281 -9.488281 9.023438 -9.75 9.390625 -9.75 C 9.734375 -9.75 10.066406 -9.597656 10.390625 -9.296875 C 10.710938 -8.992188 11.125 -8.546875 11.625 -7.953125 C 12.175781 -7.265625 12.804688 -6.734375 13.515625 -6.359375 C 14.234375 -5.984375 14.960938 -5.796875 15.703125 -5.796875 C 15.929688 -5.796875 16.164062 -5.820312 16.40625 -5.875 C 16.476562 -5.875 16.582031 -5.898438 16.71875 -5.953125 C 16.894531 -6.023438 17.023438 -6.0625 17.109375 -6.0625 Z M 17.109375 -6.0625 "/></g></g></g><g fill="#fb81b0" fill-opacity="1"><g transform="translate(142.942915, 241.382108)"><g><path d="M 13.625 -6.21875 C 13.695312 -6.164062 13.734375 -6.050781 13.734375 -5.875 C 13.734375 -5.6875 13.625 -5.515625 13.40625 -5.359375 C 13.1875 -5.203125 13.007812 -5.070312 12.875 -4.96875 C 12.4375 -4.582031 11.976562 -4.203125 11.5 -3.828125 C 11.03125 -3.460938 10.5625 -3.113281 10.09375 -2.78125 C 9.101562 -2.070312 8.050781 -1.441406 6.9375 -0.890625 C 5.832031 -0.347656 4.65625 0.078125 3.40625 0.390625 C 2.882812 0.546875 2.335938 0.625 1.765625 0.625 C 1.191406 0.625 0.617188 0.363281 0.046875 -0.15625 C -0.535156 -0.65625 -0.859375 -1.179688 -0.921875 -1.734375 C -0.984375 -2.296875 -0.9375 -2.835938 -0.78125 -3.359375 C -0.3125 -5.140625 0.347656 -6.796875 1.203125 -8.328125 C 2.066406 -9.867188 3.101562 -11.296875 4.3125 -12.609375 C 4.4375 -12.785156 4.597656 -12.953125 4.796875 -13.109375 C 4.992188 -13.265625 5.257812 -13.210938 5.59375 -12.953125 C 5.957031 -12.671875 6.070312 -12.414062 5.9375 -12.1875 C 5.8125 -11.96875 5.695312 -11.765625 5.59375 -11.578125 C 4.757812 -10.253906 3.953125 -8.925781 3.171875 -7.59375 C 2.390625 -6.257812 1.695312 -4.863281 1.09375 -3.40625 C 0.988281 -3.144531 0.859375 -2.867188 0.703125 -2.578125 C 0.546875 -2.296875 0.46875 -2.003906 0.46875 -1.703125 C 0.46875 -1.398438 0.613281 -1.109375 0.90625 -0.828125 C 1.375 -0.328125 1.894531 -0.113281 2.46875 -0.1875 C 3.039062 -0.269531 3.578125 -0.363281 4.078125 -0.46875 C 5.066406 -0.707031 5.988281 -1.0625 6.84375 -1.53125 C 7.707031 -2 8.53125 -2.519531 9.3125 -3.09375 C 9.414062 -3.164062 9.675781 -3.382812 10.09375 -3.75 C 10.507812 -4.125 10.96875 -4.519531 11.46875 -4.9375 C 11.96875 -5.351562 12.425781 -5.691406 12.84375 -5.953125 C 13.257812 -6.210938 13.519531 -6.300781 13.625 -6.21875 Z M 7.3125 -14.796875 C 6.71875 -14.742188 6.34375 -15.015625 6.1875 -15.609375 C 6.050781 -16.140625 6.097656 -16.515625 6.328125 -16.734375 C 6.566406 -16.953125 6.910156 -17.078125 7.359375 -17.109375 C 7.671875 -17.128906 7.941406 -17.0625 8.171875 -16.90625 C 8.410156 -16.75 8.582031 -16.460938 8.6875 -16.046875 C 8.71875 -15.628906 8.601562 -15.328125 8.34375 -15.140625 C 8.082031 -14.960938 7.738281 -14.847656 7.3125 -14.796875 Z M 7.3125 -14.796875 "/></g></g></g><g fill="#fb81b0" fill-opacity="1"><g transform="translate(155.859311, 241.382108)"><g><path d="M 0.625 -2.421875 C 0.34375 -1.378906 0.148438 -0.269531 0.046875 0.90625 C 0.046875 1.03125 0.0546875 1.207031 0.078125 1.4375 C 0.109375 1.675781 0.210938 1.863281 0.390625 2 C 0.492188 2.101562 0.625 2.15625 0.78125 2.15625 C 0.882812 2.15625 0.988281 2.128906 1.09375 2.078125 C 1.59375 1.941406 2.039062 1.710938 2.4375 1.390625 C 2.84375 1.066406 3.21875 0.75 3.5625 0.4375 C 4.425781 -0.375 5.050781 -1.378906 5.4375 -2.578125 C 5.488281 -2.734375 5.523438 -2.894531 5.546875 -3.0625 C 5.578125 -3.238281 5.503906 -3.414062 5.328125 -3.59375 C 5.140625 -3.832031 4.929688 -3.953125 4.703125 -3.953125 C 4.617188 -3.953125 4.535156 -3.9375 4.453125 -3.90625 C 4.378906 -3.882812 4.304688 -3.859375 4.234375 -3.828125 C 4.128906 -3.773438 4.03125 -3.742188 3.9375 -3.734375 C 3.84375 -3.722656 3.742188 -3.71875 3.640625 -3.71875 C 3.503906 -3.6875 3.398438 -3.671875 3.328125 -3.671875 C 2.910156 -3.671875 2.632812 -3.832031 2.5 -4.15625 C 2.425781 -4.332031 2.425781 -4.472656 2.5 -4.578125 C 2.582031 -4.734375 2.804688 -4.828125 3.171875 -4.859375 C 4.554688 -5.015625 5.878906 -5.207031 7.140625 -5.4375 C 8.410156 -5.675781 9.539062 -5.898438 10.53125 -6.109375 C 10.894531 -6.210938 11.265625 -6.300781 11.640625 -6.375 C 12.023438 -6.457031 12.398438 -6.550781 12.765625 -6.65625 L 12.875 -6.6875 C 13.0625 -6.738281 13.191406 -6.765625 13.265625 -6.765625 C 13.398438 -6.765625 13.519531 -6.675781 13.625 -6.5 C 13.675781 -6.394531 13.6875 -6.316406 13.65625 -6.265625 C 13.632812 -6.179688 13.578125 -6.125 13.484375 -6.09375 C 13.390625 -6.070312 13.289062 -6.050781 13.1875 -6.03125 L 11.15625 -5.59375 C 10.53125 -5.4375 9.890625 -5.285156 9.234375 -5.140625 C 8.585938 -5.003906 7.9375 -4.859375 7.28125 -4.703125 C 6.832031 -4.617188 6.5 -4.46875 6.28125 -4.25 C 6.0625 -4.03125 5.953125 -3.617188 5.953125 -3.015625 C 5.953125 -1.816406 5.601562 -0.820312 4.90625 -0.03125 C 4.21875 0.75 3.46875 1.476562 2.65625 2.15625 L 2.390625 2.390625 C 2.128906 2.597656 1.859375 2.804688 1.578125 3.015625 C 1.304688 3.222656 0.988281 3.328125 0.625 3.328125 C 0.257812 3.328125 -0.117188 3.179688 -0.515625 2.890625 C -1.109375 2.472656 -1.40625 2 -1.40625 1.46875 C -1.40625 0.9375 -1.367188 0.421875 -1.296875 -0.078125 L -1.21875 -0.46875 C -0.09375 -6.757812 2.164062 -12.410156 5.5625 -17.421875 L 6.421875 -18.703125 C 7.148438 -19.804688 7.90625 -20.90625 8.6875 -22 C 9.46875 -23.09375 10.316406 -24.132812 11.234375 -25.125 C 11.492188 -25.414062 11.789062 -25.695312 12.125 -25.96875 C 12.46875 -26.238281 12.863281 -26.441406 13.3125 -26.578125 C 13.59375 -26.648438 13.863281 -26.6875 14.125 -26.6875 C 14.75 -26.6875 15.273438 -26.476562 15.703125 -26.0625 C 16.222656 -25.570312 16.484375 -24.910156 16.484375 -24.078125 C 16.484375 -22.535156 16.191406 -21.171875 15.609375 -19.984375 C 15.035156 -18.796875 14.398438 -17.734375 13.703125 -16.796875 C 10.878906 -13.003906 7.328125 -9.859375 3.046875 -7.359375 C 2.992188 -7.304688 2.914062 -7.265625 2.8125 -7.234375 C 2.6875 -7.160156 2.554688 -7.078125 2.421875 -6.984375 C 2.296875 -6.890625 2.191406 -6.765625 2.109375 -6.609375 C 2.035156 -6.328125 1.945312 -6.054688 1.84375 -5.796875 C 1.738281 -5.535156 1.632812 -5.257812 1.53125 -4.96875 C 1.375 -4.550781 1.21875 -4.125 1.0625 -3.6875 C 0.90625 -3.257812 0.757812 -2.835938 0.625 -2.421875 Z M 3.28125 -9.703125 C 3.207031 -9.523438 3.128906 -9.335938 3.046875 -9.140625 C 2.972656 -8.941406 2.882812 -8.753906 2.78125 -8.578125 L 2.96875 -8.375 C 6.445312 -10.226562 9.460938 -12.707031 12.015625 -15.8125 C 13.835938 -18.03125 14.984375 -20.257812 15.453125 -22.5 L 15.453125 -22.65625 C 15.554688 -23.101562 15.613281 -23.582031 15.625 -24.09375 C 15.644531 -24.601562 15.394531 -25.023438 14.875 -25.359375 C 14.664062 -25.492188 14.457031 -25.5625 14.25 -25.5625 C 13.9375 -25.5625 13.660156 -25.441406 13.421875 -25.203125 C 13.191406 -24.972656 12.984375 -24.738281 12.796875 -24.5 L 12.640625 -24.34375 C 9.847656 -20.894531 7.132812 -16.835938 4.5 -12.171875 C 4.269531 -11.773438 4.054688 -11.367188 3.859375 -10.953125 C 3.660156 -10.535156 3.46875 -10.117188 3.28125 -9.703125 Z M 3.28125 -9.703125 "/></g></g></g><g fill="#fb81b0" fill-opacity="1"><g transform="translate(168.423436, 241.382108)"><g><path d="M 20.125 -7.625 C 20.25 -7.601562 20.328125 -7.578125 20.359375 -7.546875 C 20.429688 -7.421875 20.378906 -7.253906 20.203125 -7.046875 C 17.515625 -4.222656 14.238281 -1.742188 10.375 0.390625 L 10.09375 0.515625 C 9.96875 0.617188 9.816406 0.707031 9.640625 0.78125 C 9.472656 0.863281 9.300781 0.90625 9.125 0.90625 C 8.863281 0.90625 8.585938 0.785156 8.296875 0.546875 C 7.953125 0.234375 7.785156 -0.0546875 7.796875 -0.328125 C 7.816406 -0.609375 7.878906 -0.90625 7.984375 -1.21875 C 8.015625 -1.269531 8.039062 -1.320312 8.0625 -1.375 C 8.09375 -1.425781 8.109375 -1.476562 8.109375 -1.53125 C 8.335938 -2.363281 8.628906 -3.164062 8.984375 -3.9375 C 9.335938 -4.707031 9.695312 -5.441406 10.0625 -6.140625 C 10.0625 -6.140625 10.144531 -6.296875 10.3125 -6.609375 C 10.476562 -6.921875 10.660156 -7.253906 10.859375 -7.609375 C 11.054688 -7.960938 11.191406 -8.207031 11.265625 -8.34375 C 11.265625 -8.363281 11.316406 -8.441406 11.421875 -8.578125 C 11.660156 -8.910156 11.863281 -9.257812 12.03125 -9.625 C 12.207031 -9.988281 12.253906 -10.273438 12.171875 -10.484375 C 12.117188 -10.617188 12.039062 -10.710938 11.9375 -10.765625 C 11.863281 -10.785156 11.800781 -10.796875 11.75 -10.796875 C 11.476562 -10.796875 11.1875 -10.648438 10.875 -10.359375 C 10.5625 -10.078125 10.40625 -9.9375 10.40625 -9.9375 C 10.226562 -9.726562 10.046875 -9.46875 9.859375 -9.15625 C 9.679688 -8.84375 9.578125 -8.492188 9.546875 -8.109375 L 9.546875 -7.953125 C 9.546875 -7.835938 9.539062 -7.710938 9.53125 -7.578125 C 9.519531 -7.453125 9.472656 -7.390625 9.390625 -7.390625 C 9.367188 -7.390625 9.3125 -7.410156 9.21875 -7.453125 C 9.125 -7.492188 9 -7.59375 8.84375 -7.75 L 8.734375 -7.875 L 8.5 -7.59375 C 8.414062 -7.539062 8.34375 -7.472656 8.28125 -7.390625 C 8.21875 -7.316406 8.160156 -7.253906 8.109375 -7.203125 C 7.785156 -6.859375 7.488281 -6.523438 7.21875 -6.203125 C 6.945312 -5.878906 6.664062 -5.5625 6.375 -5.25 C 5.75 -4.519531 5.109375 -3.796875 4.453125 -3.078125 C 3.804688 -2.359375 3.101562 -1.6875 2.34375 -1.0625 L 2.078125 -0.828125 C 1.835938 -0.617188 1.585938 -0.421875 1.328125 -0.234375 C 1.066406 -0.046875 0.78125 0.046875 0.46875 0.046875 C 0.207031 0.046875 -0.0664062 -0.046875 -0.359375 -0.234375 C -0.898438 -0.628906 -1.15625 -1.085938 -1.125 -1.609375 C -1.101562 -2.128906 -1.03125 -2.632812 -0.90625 -3.125 L -0.859375 -3.359375 C -0.234375 -5.867188 0.882812 -8.023438 2.5 -9.828125 C 3.625 -11.078125 4.957031 -11.703125 6.5 -11.703125 L 6.609375 -11.703125 C 6.953125 -11.703125 7.28125 -11.679688 7.59375 -11.640625 C 7.90625 -11.597656 8.140625 -11.472656 8.296875 -11.265625 C 8.765625 -10.585938 9.207031 -10.25 9.625 -10.25 C 9.832031 -10.25 10.015625 -10.3125 10.171875 -10.4375 C 10.328125 -10.570312 10.5 -10.71875 10.6875 -10.875 L 10.796875 -11 C 11.035156 -11.226562 11.296875 -11.410156 11.578125 -11.546875 C 11.710938 -11.597656 11.835938 -11.644531 11.953125 -11.6875 C 12.078125 -11.726562 12.191406 -11.75 12.296875 -11.75 C 12.472656 -11.75 12.65625 -11.679688 12.84375 -11.546875 C 13.050781 -11.359375 13.144531 -11.171875 13.125 -10.984375 C 13.113281 -10.804688 13.054688 -10.613281 12.953125 -10.40625 C 12.515625 -9.445312 12.070312 -8.503906 11.625 -7.578125 C 11.175781 -6.648438 10.734375 -5.726562 10.296875 -4.8125 L 9.59375 -3.328125 C 9.4375 -3.035156 9.296875 -2.734375 9.171875 -2.421875 C 9.054688 -2.109375 8.945312 -1.8125 8.84375 -1.53125 L 8.65625 -0.9375 C 8.550781 -0.675781 8.535156 -0.484375 8.609375 -0.359375 C 8.660156 -0.273438 8.738281 -0.207031 8.84375 -0.15625 C 8.925781 -0.132812 9.019531 -0.125 9.125 -0.125 C 9.382812 -0.125 9.679688 -0.203125 10.015625 -0.359375 C 10.359375 -0.515625 10.59375 -0.628906 10.71875 -0.703125 C 11.5625 -1.273438 12.382812 -1.851562 13.1875 -2.4375 C 14 -3.03125 14.78125 -3.613281 15.53125 -4.1875 C 15.800781 -4.375 16.050781 -4.5625 16.28125 -4.75 C 16.519531 -4.945312 16.769531 -5.140625 17.03125 -5.328125 C 17.1875 -5.453125 17.347656 -5.585938 17.515625 -5.734375 C 17.679688 -5.878906 17.859375 -6.015625 18.046875 -6.140625 C 18.117188 -6.222656 18.191406 -6.296875 18.265625 -6.359375 C 18.347656 -6.421875 18.441406 -6.476562 18.546875 -6.53125 C 18.679688 -6.664062 18.828125 -6.789062 18.984375 -6.90625 C 19.140625 -7.019531 19.296875 -7.144531 19.453125 -7.28125 L 19.609375 -7.359375 C 19.691406 -7.410156 19.773438 -7.46875 19.859375 -7.53125 C 19.953125 -7.59375 20.039062 -7.625 20.125 -7.625 Z M 8.6875 -9.125 C 8.945312 -9.40625 8.9375 -9.742188 8.65625 -10.140625 C 8.3125 -10.578125 7.90625 -10.796875 7.4375 -10.796875 C 7.382812 -10.796875 7.332031 -10.796875 7.28125 -10.796875 C 6.625 -10.671875 6.050781 -10.460938 5.5625 -10.171875 C 4.40625 -9.492188 3.472656 -8.644531 2.765625 -7.625 C 2.066406 -6.613281 1.457031 -5.613281 0.9375 -4.625 C 0.882812 -4.519531 0.828125 -4.414062 0.765625 -4.3125 C 0.703125 -4.207031 0.644531 -4.101562 0.59375 -4 C 0.4375 -3.757812 0.289062 -3.507812 0.15625 -3.25 C 0.0195312 -2.988281 -0.0820312 -2.703125 -0.15625 -2.390625 C -0.1875 -2.253906 -0.203125 -2.015625 -0.203125 -1.671875 C -0.203125 -1.335938 -0.109375 -1.09375 0.078125 -0.9375 C 0.160156 -0.832031 0.265625 -0.78125 0.390625 -0.78125 C 0.492188 -0.78125 0.625 -0.820312 0.78125 -0.90625 C 1.90625 -1.601562 2.90625 -2.4375 3.78125 -3.40625 C 4.65625 -4.375 5.492188 -5.351562 6.296875 -6.34375 C 6.691406 -6.8125 7.082031 -7.28125 7.46875 -7.75 C 7.863281 -8.21875 8.269531 -8.675781 8.6875 -9.125 Z M 8.6875 -9.125 "/></g></g></g><g fill="#fb81b0" fill-opacity="1"><g transform="translate(81.101725, 275.882106)"><g><path d="M 3.09375 14.046875 C 2.957031 14.046875 2.800781 13.984375 2.625 13.859375 C 2.332031 13.648438 2.195312 13.425781 2.21875 13.1875 C 2.25 12.957031 2.34375 12.6875 2.5 12.375 C 2.582031 12.1875 2.632812 12.054688 2.65625 11.984375 C 3.125 10.671875 3.671875 9.429688 4.296875 8.265625 C 4.929688 7.109375 5.519531 6.085938 6.0625 5.203125 C 6.976562 3.691406 7.160156 1.828125 6.609375 -0.390625 C 6.140625 -2.191406 5.070312 -3.613281 3.40625 -4.65625 C 3.320312 -4.6875 3.203125 -4.753906 3.046875 -4.859375 C 2.765625 -5.015625 2.535156 -5.15625 2.359375 -5.28125 C 2.191406 -5.414062 2.109375 -5.597656 2.109375 -5.828125 C 2.109375 -6.117188 2.207031 -6.304688 2.40625 -6.390625 C 2.601562 -6.484375 2.84375 -6.570312 3.125 -6.65625 L 3.359375 -6.6875 C 6.179688 -7.445312 8.859375 -7.828125 11.390625 -7.828125 C 11.546875 -7.828125 11.753906 -7.828125 12.015625 -7.828125 C 12.273438 -7.828125 12.40625 -7.828125 12.40625 -7.828125 C 13.5 -7.828125 14.375 -8.296875 15.03125 -9.234375 C 15.582031 -10.046875 16.125 -10.851562 16.65625 -11.65625 C 17.1875 -12.46875 17.710938 -13.28125 18.234375 -14.09375 C 19.878906 -16.59375 21.5625 -19.101562 23.28125 -21.625 C 25.007812 -24.144531 26.863281 -26.550781 28.84375 -28.84375 C 29.207031 -29.257812 29.582031 -29.65625 29.96875 -30.03125 C 30.363281 -30.414062 30.828125 -30.710938 31.359375 -30.921875 C 31.617188 -31.046875 31.851562 -31.109375 32.0625 -31.109375 C 32.632812 -31.109375 33.0625 -30.691406 33.34375 -29.859375 C 33.601562 -29.078125 33.707031 -28.335938 33.65625 -27.640625 C 33.601562 -26.953125 33.523438 -26.269531 33.421875 -25.59375 C 32.847656 -22.175781 32.070312 -18.863281 31.09375 -15.65625 C 30.113281 -12.445312 29.117188 -9.289062 28.109375 -6.1875 C 27.847656 -5.476562 27.601562 -4.773438 27.375 -4.078125 C 27.15625 -3.390625 26.925781 -2.695312 26.6875 -2 C 26.09375 -0.164062 25.472656 1.644531 24.828125 3.4375 C 24.191406 5.238281 23.546875 7.054688 22.890625 8.890625 C 22.867188 8.960938 22.832031 9.078125 22.78125 9.234375 C 22.75 9.390625 22.703125 9.546875 22.640625 9.703125 C 22.578125 9.859375 22.476562 9.9375 22.34375 9.9375 C 22.238281 9.9375 22.109375 9.898438 21.953125 9.828125 C 21.828125 9.742188 21.738281 9.664062 21.6875 9.59375 C 21.632812 9.488281 21.632812 9.363281 21.6875 9.21875 C 21.738281 9.070312 21.789062 8.945312 21.84375 8.84375 C 21.894531 8.664062 21.929688 8.535156 21.953125 8.453125 C 22.609375 5.742188 23.359375 3.054688 24.203125 0.390625 C 25.054688 -2.265625 25.910156 -4.875 26.765625 -7.4375 C 27.367188 -9.15625 27.957031 -10.894531 28.53125 -12.65625 C 29.101562 -14.414062 29.648438 -16.1875 30.171875 -17.96875 C 30.273438 -18.300781 30.4375 -18.859375 30.65625 -19.640625 C 30.882812 -20.429688 31.125 -21.320312 31.375 -22.3125 C 31.625 -23.300781 31.835938 -24.289062 32.015625 -25.28125 C 32.203125 -26.269531 32.328125 -27.132812 32.390625 -27.875 C 32.453125 -28.625 32.40625 -29.144531 32.25 -29.4375 C 32.175781 -29.539062 32.085938 -29.617188 31.984375 -29.671875 L 31.9375 -29.671875 L 31.75 -29.703125 C 31.613281 -29.703125 31.492188 -29.671875 31.390625 -29.609375 C 31.285156 -29.546875 31.21875 -29.5 31.1875 -29.46875 C 30.875 -29.238281 30.59375 -28.976562 30.34375 -28.6875 C 30.101562 -28.40625 29.863281 -28.117188 29.625 -27.828125 C 29.5 -27.671875 29.367188 -27.515625 29.234375 -27.359375 C 29.109375 -27.203125 28.976562 -27.046875 28.84375 -26.890625 C 27.9375 -25.867188 27.007812 -24.773438 26.0625 -23.609375 C 25.15625 -22.398438 24.28125 -21.1875 23.4375 -19.96875 C 22.601562 -18.757812 21.820312 -17.609375 21.09375 -16.515625 L 20.203125 -15.109375 C 19.441406 -13.960938 18.675781 -12.804688 17.90625 -11.640625 C 17.132812 -10.484375 16.34375 -9.34375 15.53125 -8.21875 L 15.375 -7.984375 L 15.734375 -7.984375 C 17.171875 -7.910156 18.507812 -7.8125 19.75 -7.6875 C 20.988281 -7.570312 22.21875 -7.367188 23.4375 -7.078125 C 23.5 -7.054688 23.566406 -7.046875 23.640625 -7.046875 C 23.722656 -7.046875 23.789062 -7.046875 23.84375 -7.046875 C 23.96875 -7.015625 24.082031 -6.992188 24.1875 -6.984375 C 24.289062 -6.972656 24.382812 -6.925781 24.46875 -6.84375 C 24.539062 -6.789062 24.59375 -6.675781 24.625 -6.5 C 24.644531 -6.238281 24.515625 -6.109375 24.234375 -6.109375 C 24.148438 -6.109375 24.0625 -6.113281 23.96875 -6.125 C 23.882812 -6.132812 23.789062 -6.15625 23.6875 -6.1875 L 23.53125 -6.21875 C 23.3125 -6.269531 23.082031 -6.316406 22.84375 -6.359375 C 22.613281 -6.398438 22.382812 -6.457031 22.15625 -6.53125 C 21.84375 -6.582031 21.519531 -6.644531 21.1875 -6.71875 C 20.863281 -6.800781 20.546875 -6.859375 20.234375 -6.890625 C 19.453125 -7.015625 18.75 -7.078125 18.125 -7.078125 C 15.613281 -7.078125 13.835938 -6.035156 12.796875 -3.953125 C 12.359375 -3.066406 11.898438 -2.195312 11.421875 -1.34375 C 10.953125 -0.5 10.472656 0.335938 9.984375 1.171875 C 9.117188 2.660156 8.269531 4.1875 7.4375 5.75 C 6.601562 7.320312 5.882812 8.96875 5.28125 10.6875 C 5.125 11.101562 4.9375 11.5 4.71875 11.875 C 4.5 12.257812 4.269531 12.617188 4.03125 12.953125 C 3.976562 13.035156 3.910156 13.15625 3.828125 13.3125 C 3.753906 13.488281 3.65625 13.65625 3.53125 13.8125 C 3.414062 13.96875 3.269531 14.046875 3.09375 14.046875 Z M 13.078125 -6.921875 C 12.472656 -6.972656 11.882812 -7 11.3125 -7 C 10.03125 -7 8.816406 -6.898438 7.671875 -6.703125 C 6.523438 -6.515625 5.40625 -6.300781 4.3125 -6.0625 C 4.070312 -6.007812 3.910156 -5.941406 3.828125 -5.859375 C 3.753906 -5.785156 3.71875 -5.710938 3.71875 -5.640625 C 3.71875 -5.554688 3.75 -5.445312 3.8125 -5.3125 C 3.882812 -5.1875 4.035156 -5.035156 4.265625 -4.859375 C 6.273438 -3.285156 7.4375 -1.128906 7.75 1.609375 L 7.78125 2.109375 L 13.390625 -6.890625 Z M 13.078125 -6.921875 "/></g></g></g><g fill="#fb81b0" fill-opacity="1"><g transform="translate(112.218483, 275.882106)"><g><path d="M 21.5625 -6.578125 C 21.71875 -6.472656 21.8125 -6.367188 21.84375 -6.265625 C 21.863281 -6.160156 21.84375 -6.0625 21.78125 -5.96875 C 21.71875 -5.875 21.644531 -5.789062 21.5625 -5.71875 C 21.457031 -5.613281 21.394531 -5.535156 21.375 -5.484375 C 19.207031 -2.140625 16.140625 0.648438 12.171875 2.890625 C 11.753906 3.128906 11.21875 3.25 10.5625 3.25 L 10.484375 3.25 C 9.835938 3.25 9.34375 3.078125 9 2.734375 C 8.632812 2.398438 8.453125 1.894531 8.453125 1.21875 C 8.453125 0.613281 8.566406 0.0703125 8.796875 -0.40625 C 9.035156 -0.894531 9.285156 -1.359375 9.546875 -1.796875 L 9.9375 -2.421875 C 10.019531 -2.578125 10.101562 -2.734375 10.1875 -2.890625 C 10.28125 -3.046875 10.367188 -3.203125 10.453125 -3.359375 L 10.484375 -3.484375 C 10.535156 -3.585938 10.582031 -3.71875 10.625 -3.875 C 10.664062 -4.03125 10.59375 -4.203125 10.40625 -4.390625 C 10.195312 -4.597656 9.953125 -4.703125 9.671875 -4.703125 C 9.566406 -4.703125 9.445312 -4.675781 9.3125 -4.625 C 8.789062 -4.519531 8.273438 -4.394531 7.765625 -4.25 C 7.253906 -4.101562 6.738281 -3.953125 6.21875 -3.796875 C 5.570312 -3.554688 4.941406 -3.28125 4.328125 -2.96875 C 3.710938 -2.65625 3.117188 -2.332031 2.546875 -2 C 2.285156 -1.863281 2.03125 -1.722656 1.78125 -1.578125 C 1.53125 -1.441406 1.273438 -1.304688 1.015625 -1.171875 L 0.859375 -1.09375 C 0.753906 -1.019531 0.632812 -0.957031 0.5 -0.90625 C 0.375 -0.851562 0.25 -0.828125 0.125 -0.828125 C -0.113281 -0.828125 -0.363281 -0.929688 -0.625 -1.140625 C -0.914062 -1.398438 -1.0625 -1.640625 -1.0625 -1.859375 C -1.0625 -2.078125 -1.035156 -2.304688 -0.984375 -2.546875 L -0.9375 -2.703125 C -0.46875 -4.835938 0.328125 -6.742188 1.453125 -8.421875 L 1.53125 -8.53125 C 1.582031 -8.632812 1.644531 -8.734375 1.71875 -8.828125 C 1.800781 -8.921875 1.894531 -8.96875 2 -8.96875 C 2.070312 -8.96875 2.148438 -8.941406 2.234375 -8.890625 C 2.410156 -8.804688 2.523438 -8.703125 2.578125 -8.578125 C 2.710938 -8.316406 2.71875 -8.007812 2.59375 -7.65625 C 2.476562 -7.300781 2.359375 -7.003906 2.234375 -6.765625 C 2.148438 -6.609375 2.109375 -6.503906 2.109375 -6.453125 L 0.75 -2.890625 C 0.71875 -2.835938 0.6875 -2.753906 0.65625 -2.640625 C 0.632812 -2.523438 0.675781 -2.425781 0.78125 -2.34375 C 0.882812 -2.269531 1.015625 -2.234375 1.171875 -2.234375 C 1.328125 -2.234375 1.507812 -2.265625 1.71875 -2.328125 C 1.925781 -2.390625 2.070312 -2.445312 2.15625 -2.5 C 2.28125 -2.550781 2.394531 -2.609375 2.5 -2.671875 C 2.601562 -2.742188 2.707031 -2.816406 2.8125 -2.890625 C 2.945312 -2.992188 3.070312 -3.082031 3.1875 -3.15625 C 3.300781 -3.238281 3.425781 -3.304688 3.5625 -3.359375 C 3.976562 -3.566406 4.398438 -3.765625 4.828125 -3.953125 C 5.265625 -4.140625 5.703125 -4.320312 6.140625 -4.5 C 7.210938 -4.945312 8.21875 -5.234375 9.15625 -5.359375 C 9.3125 -5.390625 9.457031 -5.40625 9.59375 -5.40625 C 10.269531 -5.40625 10.800781 -5.179688 11.1875 -4.734375 C 11.632812 -4.242188 11.753906 -3.628906 11.546875 -2.890625 C 11.441406 -2.453125 11.300781 -2.023438 11.125 -1.609375 C 10.957031 -1.191406 10.796875 -0.773438 10.640625 -0.359375 C 10.535156 -0.117188 10.4375 0.113281 10.34375 0.34375 C 10.257812 0.582031 10.164062 0.820312 10.0625 1.0625 L 10.015625 1.21875 C 9.941406 1.34375 9.890625 1.492188 9.859375 1.671875 C 9.835938 1.859375 9.90625 2.03125 10.0625 2.1875 C 10.269531 2.394531 10.503906 2.5 10.765625 2.5 C 10.867188 2.5 10.972656 2.484375 11.078125 2.453125 C 11.179688 2.429688 11.285156 2.410156 11.390625 2.390625 C 12.617188 2.023438 13.6875 1.484375 14.59375 0.765625 C 15.507812 0.046875 16.332031 -0.675781 17.0625 -1.40625 C 17.664062 -2.007812 18.3125 -2.679688 19 -3.421875 C 19.695312 -4.171875 20.28125 -5.015625 20.75 -5.953125 L 20.828125 -6.03125 C 20.878906 -6.15625 20.945312 -6.289062 21.03125 -6.4375 C 21.125 -6.582031 21.238281 -6.65625 21.375 -6.65625 C 21.425781 -6.65625 21.488281 -6.628906 21.5625 -6.578125 Z M 21.5625 -6.578125 "/></g></g></g><g fill="#fb81b0" fill-opacity="1"><g transform="translate(132.923853, 275.882106)"><g><path d="M 3.40625 -12.140625 C 3.769531 -11.929688 3.914062 -11.707031 3.84375 -11.46875 C 3.78125 -11.226562 3.722656 -11.019531 3.671875 -10.84375 C 3.304688 -9.644531 2.894531 -8.457031 2.4375 -7.28125 C 1.988281 -6.101562 1.539062 -4.914062 1.09375 -3.71875 C 0.757812 -2.78125 0.4375 -1.894531 0.125 -1.0625 C -0.164062 -0.351562 -0.453125 0.34375 -0.734375 1.03125 C -1.023438 1.726562 -1.316406 2.425781 -1.609375 3.125 C -2.617188 5.394531 -3.691406 7.644531 -4.828125 9.875 C -5.960938 12.113281 -7.300781 14.210938 -8.84375 16.171875 C -9.132812 16.535156 -9.445312 16.882812 -9.78125 17.21875 C -10.125 17.5625 -10.515625 17.835938 -10.953125 18.046875 C -11.953125 18.484375 -12.609375 18.09375 -12.921875 16.875 C -13.023438 16.40625 -13.015625 15.96875 -12.890625 15.5625 C -12.773438 15.15625 -12.640625 14.753906 -12.484375 14.359375 C -11.773438 12.671875 -10.894531 11.109375 -9.84375 9.671875 C -8.789062 8.234375 -7.625 6.898438 -6.34375 5.671875 C -5.039062 4.472656 -4.015625 3.097656 -3.265625 1.546875 C -2.523438 -0.00390625 -1.84375 -1.585938 -1.21875 -3.203125 C -0.71875 -4.429688 -0.234375 -5.660156 0.234375 -6.890625 C 0.703125 -8.117188 1.171875 -9.34375 1.640625 -10.5625 C 1.742188 -10.769531 1.84375 -10.960938 1.9375 -11.140625 C 2.03125 -11.328125 2.140625 -11.515625 2.265625 -11.703125 C 2.367188 -11.910156 2.507812 -12.070312 2.6875 -12.1875 C 2.875 -12.3125 3.113281 -12.296875 3.40625 -12.140625 Z M -8.0625 12.015625 C -7.5625 11.097656 -7.101562 10.15625 -6.6875 9.1875 C -6.269531 8.226562 -5.851562 7.265625 -5.4375 6.296875 C -5.519531 6.484375 -5.675781 6.660156 -5.90625 6.828125 C -6.144531 6.992188 -6.34375 7.15625 -6.5 7.3125 C -6.675781 7.5 -6.851562 7.679688 -7.03125 7.859375 C -7.21875 8.046875 -7.390625 8.242188 -7.546875 8.453125 C -7.921875 8.816406 -8.273438 9.203125 -8.609375 9.609375 C -8.953125 10.015625 -9.28125 10.4375 -9.59375 10.875 C -9.875 11.289062 -10.15625 11.710938 -10.4375 12.140625 C -10.726562 12.578125 -10.976562 13.03125 -11.1875 13.5 C -11.320312 13.789062 -11.460938 14.078125 -11.609375 14.359375 C -11.753906 14.648438 -11.863281 14.953125 -11.9375 15.265625 C -11.988281 15.492188 -11.96875 15.789062 -11.875 16.15625 C -11.789062 16.53125 -11.5625 16.648438 -11.1875 16.515625 C -10.769531 16.359375 -10.460938 16.082031 -10.265625 15.6875 C -10.078125 15.300781 -9.878906 14.9375 -9.671875 14.59375 C -9.410156 14.15625 -9.132812 13.726562 -8.84375 13.3125 C -8.5625 12.894531 -8.300781 12.460938 -8.0625 12.015625 Z M 5.046875 -15.609375 C 5.203125 -15.117188 5.222656 -14.71875 5.109375 -14.40625 C 4.992188 -14.09375 4.6875 -13.910156 4.1875 -13.859375 C 3.769531 -13.828125 3.414062 -13.941406 3.125 -14.203125 C 2.84375 -14.460938 2.648438 -14.789062 2.546875 -15.1875 C 2.410156 -15.707031 2.429688 -16.132812 2.609375 -16.46875 C 2.796875 -16.8125 3.148438 -17.007812 3.671875 -17.0625 C 4.203125 -17.09375 4.535156 -16.9375 4.671875 -16.59375 C 4.816406 -16.257812 4.941406 -15.929688 5.046875 -15.609375 Z M 5.046875 -15.609375 "/></g></g></g><g fill="#fb81b0" fill-opacity="1"><g transform="translate(138.129553, 275.882106)"><g><path d="M 22.078125 -6.1875 C 22.179688 -6.101562 22.234375 -6.023438 22.234375 -5.953125 C 22.253906 -5.867188 22.175781 -5.738281 22 -5.5625 C 20.800781 -4.382812 19.476562 -3.257812 18.03125 -2.1875 C 16.582031 -1.125 14.890625 -0.328125 12.953125 0.203125 C 12.515625 0.328125 12.082031 0.390625 11.65625 0.390625 C 10.90625 0.390625 10.28125 0.15625 9.78125 -0.3125 C 9 -0.96875 8.519531 -2.085938 8.34375 -3.671875 L 8.296875 -3.953125 L 7.15625 -3.015625 C 6.789062 -2.703125 6.425781 -2.390625 6.0625 -2.078125 C 5.695312 -1.765625 5.332031 -1.460938 4.96875 -1.171875 C 4.03125 -0.421875 3.015625 0.125 1.921875 0.46875 C 1.578125 0.570312 1.289062 0.625 1.0625 0.625 C 0.59375 0.625 0.171875 0.46875 -0.203125 0.15625 C -0.847656 -0.394531 -1.117188 -1.0625 -1.015625 -1.84375 C -0.648438 -5.050781 0.753906 -8.234375 3.203125 -11.390625 C 3.390625 -11.648438 3.585938 -11.78125 3.796875 -11.78125 C 3.953125 -11.78125 4.109375 -11.710938 4.265625 -11.578125 C 4.453125 -11.421875 4.53125 -11.265625 4.5 -11.109375 C 4.476562 -10.953125 4.414062 -10.769531 4.3125 -10.5625 C 4.125 -10.144531 3.914062 -9.738281 3.6875 -9.34375 C 3.46875 -8.957031 3.242188 -8.554688 3.015625 -8.140625 C 2.441406 -7.097656 1.894531 -6.035156 1.375 -4.953125 C 0.851562 -3.867188 0.539062 -2.703125 0.4375 -1.453125 C 0.4375 -1.347656 0.441406 -1.226562 0.453125 -1.09375 C 0.460938 -0.96875 0.519531 -0.851562 0.625 -0.75 C 0.757812 -0.613281 0.90625 -0.535156 1.0625 -0.515625 C 1.132812 -0.515625 1.210938 -0.515625 1.296875 -0.515625 C 1.578125 -0.515625 1.851562 -0.570312 2.125 -0.6875 C 2.40625 -0.800781 2.660156 -0.925781 2.890625 -1.0625 C 6.128906 -2.726562 8.375 -4.914062 9.625 -7.625 C 9.675781 -7.707031 9.726562 -7.851562 9.78125 -8.0625 C 9.863281 -8.300781 9.957031 -8.523438 10.0625 -8.734375 C 10.164062 -8.941406 10.320312 -9.046875 10.53125 -9.046875 C 10.6875 -9.046875 10.851562 -8.976562 11.03125 -8.84375 C 11.269531 -8.71875 11.425781 -8.578125 11.5 -8.421875 C 11.582031 -8.234375 11.585938 -8.046875 11.515625 -7.859375 C 11.453125 -7.679688 11.367188 -7.5 11.265625 -7.3125 C 11.242188 -7.207031 11.210938 -7.113281 11.171875 -7.03125 C 11.128906 -6.957031 11.097656 -6.882812 11.078125 -6.8125 C 10.992188 -6.601562 10.910156 -6.382812 10.828125 -6.15625 C 10.753906 -5.9375 10.679688 -5.722656 10.609375 -5.515625 C 10.453125 -5.078125 10.300781 -4.617188 10.15625 -4.140625 C 10.007812 -3.671875 9.910156 -3.175781 9.859375 -2.65625 C 9.785156 -1.925781 9.914062 -1.378906 10.25 -1.015625 C 10.59375 -0.679688 11.179688 -0.5 12.015625 -0.46875 C 12.898438 -0.46875 13.6875 -0.617188 14.375 -0.921875 C 15.070312 -1.222656 15.707031 -1.554688 16.28125 -1.921875 C 18.5 -3.222656 20.234375 -4.566406 21.484375 -5.953125 C 21.515625 -5.972656 21.554688 -6.023438 21.609375 -6.109375 C 21.710938 -6.234375 21.789062 -6.296875 21.84375 -6.296875 C 21.894531 -6.296875 21.972656 -6.257812 22.078125 -6.1875 Z M 22.078125 -6.1875 "/></g></g></g><g fill="#fb81b0" fill-opacity="1"><g transform="translate(159.226322, 275.882106)"><g><path d="M 29.15625 -5.671875 C 29.1875 -5.597656 29.1875 -5.46875 29.15625 -5.28125 C 29.132812 -5.101562 28.992188 -4.816406 28.734375 -4.421875 C 27.367188 -2.359375 25.710938 -0.570312 23.765625 0.9375 C 22.816406 1.664062 21.835938 2.28125 20.828125 2.78125 L 20.671875 2.859375 C 20.222656 3.066406 19.675781 3.300781 19.03125 3.5625 C 18.394531 3.820312 17.753906 3.953125 17.109375 3.953125 C 16.242188 3.953125 15.523438 3.675781 14.953125 3.125 C 14.347656 2.550781 14.03125 1.976562 14 1.40625 C 13.976562 0.832031 14.035156 0.269531 14.171875 -0.28125 C 14.242188 -0.539062 14.351562 -0.78125 14.5 -1 C 14.644531 -1.21875 14.796875 -1.429688 14.953125 -1.640625 C 15.003906 -1.742188 15.0625 -1.832031 15.125 -1.90625 C 15.1875 -1.988281 15.242188 -2.082031 15.296875 -2.1875 C 15.453125 -2.425781 15.582031 -2.691406 15.6875 -2.984375 C 15.800781 -3.285156 15.789062 -3.53125 15.65625 -3.71875 C 15.550781 -3.90625 15.351562 -4 15.0625 -4 C 14.9375 -4 14.796875 -3.972656 14.640625 -3.921875 C 14.191406 -3.835938 13.796875 -3.671875 13.453125 -3.421875 C 13.117188 -3.171875 12.796875 -2.914062 12.484375 -2.65625 C 12.304688 -2.5 12.125 -2.335938 11.9375 -2.171875 C 11.75 -2.003906 11.539062 -1.867188 11.3125 -1.765625 C 11.207031 -1.679688 11.09375 -1.609375 10.96875 -1.546875 C 10.851562 -1.484375 10.742188 -1.410156 10.640625 -1.328125 C 10.328125 -1.148438 10.007812 -0.96875 9.6875 -0.78125 C 9.363281 -0.601562 9.003906 -0.472656 8.609375 -0.390625 C 8.429688 -0.367188 8.25 -0.359375 8.0625 -0.359375 C 7.664062 -0.359375 7.363281 -0.460938 7.15625 -0.671875 C 6.894531 -0.929688 6.789062 -1.375 6.84375 -2 C 6.875 -2.675781 7.019531 -3.296875 7.28125 -3.859375 C 7.539062 -4.421875 7.816406 -4.960938 8.109375 -5.484375 C 8.265625 -5.742188 8.410156 -5.992188 8.546875 -6.234375 C 8.691406 -6.484375 8.832031 -6.738281 8.96875 -7 C 9.09375 -7.1875 9.207031 -7.367188 9.3125 -7.546875 C 9.414062 -7.734375 9.519531 -7.921875 9.625 -8.109375 C 9.675781 -8.210938 9.738281 -8.320312 9.8125 -8.4375 C 9.894531 -8.550781 9.976562 -8.660156 10.0625 -8.765625 C 10.164062 -8.898438 10.269531 -9.046875 10.375 -9.203125 C 10.476562 -9.359375 10.566406 -9.515625 10.640625 -9.671875 C 10.898438 -10.210938 10.96875 -10.5625 10.84375 -10.71875 C 10.738281 -10.851562 10.59375 -10.921875 10.40625 -10.921875 C 10.226562 -10.921875 10.050781 -10.867188 9.875 -10.765625 C 9.707031 -10.660156 9.613281 -10.59375 9.59375 -10.5625 C 9.039062 -10.144531 8.519531 -9.695312 8.03125 -9.21875 C 7.550781 -8.738281 7.078125 -8.257812 6.609375 -7.78125 C 6.429688 -7.601562 6.253906 -7.421875 6.078125 -7.234375 C 5.910156 -7.054688 5.738281 -6.875 5.5625 -6.6875 C 4.019531 -5.15625 2.46875 -3.644531 0.90625 -2.15625 C 0.769531 -2.050781 0.632812 -1.957031 0.5 -1.875 C 0.375 -1.800781 0.25 -1.765625 0.125 -1.765625 C 0.0390625 -1.765625 -0.0234375 -1.765625 -0.078125 -1.765625 C -0.265625 -1.816406 -0.421875 -1.925781 -0.546875 -2.09375 C -0.679688 -2.257812 -0.773438 -2.421875 -0.828125 -2.578125 C -0.878906 -2.765625 -0.890625 -2.945312 -0.859375 -3.125 C -0.835938 -3.3125 -0.800781 -3.492188 -0.75 -3.671875 C -0.25 -5.679688 0.546875 -7.5 1.640625 -9.125 C 1.691406 -9.226562 1.753906 -9.316406 1.828125 -9.390625 C 1.910156 -9.472656 1.992188 -9.539062 2.078125 -9.59375 C 2.179688 -9.644531 2.285156 -9.671875 2.390625 -9.671875 C 2.515625 -9.671875 2.628906 -9.628906 2.734375 -9.546875 C 2.835938 -9.472656 2.914062 -9.375 2.96875 -9.25 C 3.019531 -9.132812 3.046875 -9.023438 3.046875 -8.921875 C 3.046875 -8.816406 3.03125 -8.707031 3 -8.59375 C 2.976562 -8.476562 2.941406 -8.367188 2.890625 -8.265625 L 1.40625 -4.46875 C 1.332031 -4.257812 1.347656 -4.078125 1.453125 -3.921875 C 1.503906 -3.835938 1.582031 -3.796875 1.6875 -3.796875 C 1.789062 -3.796875 1.878906 -3.820312 1.953125 -3.875 C 2.503906 -4.375 3.039062 -4.875 3.5625 -5.375 C 4.082031 -5.882812 4.601562 -6.398438 5.125 -6.921875 C 6.007812 -7.765625 6.898438 -8.609375 7.796875 -9.453125 C 8.703125 -10.296875 9.625 -11.125 10.5625 -11.9375 C 10.71875 -12.039062 10.878906 -12.144531 11.046875 -12.25 C 11.222656 -12.351562 11.398438 -12.40625 11.578125 -12.40625 C 11.691406 -12.40625 11.800781 -12.394531 11.90625 -12.375 C 12.1875 -12.269531 12.410156 -12.070312 12.578125 -11.78125 C 12.753906 -11.488281 12.828125 -11.226562 12.796875 -11 C 12.796875 -10.707031 12.726562 -10.414062 12.59375 -10.125 C 12.46875 -9.84375 12.328125 -9.570312 12.171875 -9.3125 C 12.117188 -9.207031 12.070312 -9.109375 12.03125 -9.015625 C 12 -8.929688 11.957031 -8.847656 11.90625 -8.765625 C 11.6875 -8.347656 11.472656 -7.9375 11.265625 -7.53125 C 11.054688 -7.125 10.847656 -6.710938 10.640625 -6.296875 L 10.453125 -5.953125 C 10.210938 -5.503906 9.96875 -5.046875 9.71875 -4.578125 C 9.476562 -4.109375 9.226562 -3.625 8.96875 -3.125 L 7.984375 -1.328125 L 8.296875 -1.40625 C 8.953125 -1.539062 9.519531 -1.722656 10 -1.953125 C 10.476562 -2.191406 10.941406 -2.441406 11.390625 -2.703125 C 11.566406 -2.804688 11.75 -2.898438 11.9375 -2.984375 C 12.125 -3.078125 12.304688 -3.175781 12.484375 -3.28125 C 12.671875 -3.363281 12.847656 -3.445312 13.015625 -3.53125 C 13.179688 -3.625 13.34375 -3.722656 13.5 -3.828125 C 13.84375 -4.015625 14.203125 -4.195312 14.578125 -4.375 C 14.953125 -4.5625 15.363281 -4.679688 15.8125 -4.734375 C 15.945312 -4.765625 16.066406 -4.78125 16.171875 -4.78125 C 16.328125 -4.78125 16.488281 -4.757812 16.65625 -4.71875 C 16.820312 -4.675781 16.957031 -4.59375 17.0625 -4.46875 C 17.25 -4.226562 17.273438 -3.875 17.140625 -3.40625 C 17.035156 -3.039062 16.910156 -2.675781 16.765625 -2.3125 C 16.628906 -1.945312 16.492188 -1.59375 16.359375 -1.25 C 16.253906 -0.96875 16.144531 -0.6875 16.03125 -0.40625 C 15.914062 -0.132812 15.816406 0.144531 15.734375 0.4375 C 15.710938 0.488281 15.671875 0.578125 15.609375 0.703125 C 15.503906 0.960938 15.429688 1.253906 15.390625 1.578125 C 15.359375 1.910156 15.523438 2.257812 15.890625 2.625 C 16.285156 3.007812 16.769531 3.203125 17.34375 3.203125 C 17.519531 3.203125 17.691406 3.1875 17.859375 3.15625 C 18.035156 3.132812 18.203125 3.097656 18.359375 3.046875 C 19.847656 2.710938 21.148438 2.15625 22.265625 1.375 C 23.390625 0.59375 24.367188 -0.21875 25.203125 -1.0625 C 25.828125 -1.632812 26.375 -2.257812 26.84375 -2.9375 C 27.320312 -3.613281 27.726562 -4.238281 28.0625 -4.8125 C 28.269531 -5.175781 28.457031 -5.429688 28.625 -5.578125 C 28.800781 -5.722656 28.925781 -5.796875 29 -5.796875 C 29.050781 -5.796875 29.101562 -5.753906 29.15625 -5.671875 Z M 29.15625 -5.671875 "/></g></g></g></svg>